<?xml version="1.0" encoding="utf-8"?>
<!-- Generator: Adobe Illustrator 22.0.0, SVG Export Plug-In . SVG Version: 6.00 Build 0)  -->
<svg version="1.1" id="Capa_1" xmlns="http://www.w3.org/2000/svg" xmlns:xlink="http://www.w3.org/1999/xlink" x="0px" y="0px"
	 viewBox="0 0 1080 1080" style="enable-background:new 0 0 1080 1080;" xml:space="preserve">
<style type="text/css">
	.st0{fill:#FFD110;}
</style>
<g>
	<g>
		<path class="st0" d="M540,1063c-289.5,0-525-235.5-525-525C15,248.5,250.5,13,540,13c289.5,0,525,235.5,525,525
			C1065,827.5,829.5,1063,540,1063z M540,270.8c-147.3,0-267.2,119.9-267.2,267.2c0,147.3,119.9,267.2,267.2,267.2
			c147.3,0,267.2-119.9,267.2-267.2C807.2,390.7,687.3,270.8,540,270.8z"/>
	</g>
	<g>
		<path d="M653.6,156c7-15.6,17.1-25.7,30.5-30.4c13.4-4.7,27.7-3.6,43,3.2c14.5,6.5,24,15,28.5,25.5c4.5,10.5,4.8,20.9,1.1,31.2
			l-0.8,2.2l-30.1-13.4l0.7-1.5c1.9-4.3,2.1-8.4,0.5-12.3c-1.6-3.9-5-7-10.3-9.4c-6.2-2.8-12-2.7-17.2,0.3c-5.3,3-9.7,8.5-13.3,16.6
			l-3.1,7c-3.7,8.2-4.9,15.2-3.8,21.1c1.1,5.9,4.9,10.2,11.5,13.2c6,2.7,10.9,3.1,14.6,1.2c3.7-1.9,6.4-4.8,8.1-8.7l0.5-1.2l30,13.4
			l-0.6,1.4c-4.5,10-12.3,16.8-23.6,20.6c-11.3,3.8-24.2,2.4-38.7-4.1c-15.2-6.8-25.5-16.7-31-29.9c-5.5-13.1-4.7-27.5,2.3-43.1
			L653.6,156z"/>
		<path d="M759.7,205.7c11.2-12.9,23.9-19.6,38-20.2c14.2-0.6,27.6,4.6,40.2,15.5c12,10.4,18.6,21.3,19.8,32.7
			c1.2,11.4-1.5,21.4-8,30.2l-1.4,1.9l-24.9-21.6l1.1-1.2c3.1-3.6,4.4-7.4,4.1-11.6c-0.4-4.2-2.8-8.2-7.2-12
			c-5.1-4.5-10.7-6-16.6-4.7c-5.9,1.3-11.8,5.4-17.6,12l-5,5.8c-5.9,6.8-9.1,13.1-9.8,19c-0.6,5.9,1.7,11.2,7.1,15.9
			c5,4.3,9.5,6.1,13.6,5.4c4.1-0.7,7.5-2.7,10.3-5.9l0.9-1l24.8,21.6l-1,1.1c-7.2,8.3-16.7,12.5-28.6,12.8
			c-11.9,0.3-23.8-4.8-35.9-15.2c-12.6-10.9-19.6-23.5-21-37.6c-1.4-14.1,3.5-27.7,14.8-40.6L759.7,205.7z"/>
		<path d="M846.2,322.4l-1.7,1.1c-3.9,2.5-5.8,5.5-5.9,9.1c-0.1,3.6,1.3,7.6,4.1,12.1c2.8,4.4,5.8,7.2,8.8,8.4
			c3,1.1,5.9,0.8,8.7-0.9c2.8-1.8,4.1-4.4,3.7-7.8c-0.4-3.4-2.7-10.6-7-21.8c-4.8-12.1-6.3-22-4.6-29.5c1.7-7.5,6.1-13.6,13.2-18.1
			c9-5.7,18.3-6.6,27.9-2.7c9.6,3.9,18.3,12,26,24.1c7.7,12.1,11.3,23.5,10.6,34.2c-0.7,10.7-5.6,18.9-14.7,24.7l-1.2,0.8
			l-17.8-27.9l1.6-1c3.2-2,5-4.6,5.6-7.7c0.5-3.1-0.5-6.8-3.2-10.9c-2.6-4.2-5.2-6.7-7.8-7.7c-2.5-1-5-0.7-7.3,0.8
			c-2.4,1.5-3.5,4-3.3,7.4c0.2,3.4,2.5,10.7,7,22.1c4.7,12,6.4,21.8,5,29.4c-1.4,7.6-5.9,13.8-13.5,18.7c-9.6,6.1-19.2,7.3-29,3.5
			c-9.8-3.7-18.9-12.3-27.5-25.8c-8.5-13.4-12.6-25.4-12.1-36.1c0.5-10.7,5.7-19.2,15.6-25.5l1.1-0.7L846.2,322.4z"/>
		<path d="M923.6,369.9l19.7,55.2l-26.8,9.6l-19.7-55.2L923.6,369.9z"/>
		<path d="M927.1,444c17-1.8,30.8,1.9,41.6,11.1c10.8,9.2,17.1,22.1,18.9,38.7c1.7,15.8-0.9,28.3-7.7,37.5
			c-6.9,9.1-15.7,14.7-26.5,16.7l-2.3,0.4l-3.5-32.8l1.6-0.2c4.7-0.5,8.3-2.4,10.9-5.7c2.6-3.3,3.5-7.9,2.9-13.6
			c-0.7-6.8-3.7-11.7-9-14.7c-5.2-3-12.3-4.1-21-3.1l-7.6,0.8c-8.9,1-15.6,3.4-20.1,7.3c-4.5,3.9-6.4,9.4-5.6,16.5
			c0.7,6.6,2.8,11,6.3,13.2c3.5,2.2,7.4,3.1,11.6,2.7l1.3-0.1l3.5,32.7l-1.5,0.2c-10.9,1.2-20.8-2.2-29.7-10
			c-8.9-7.9-14.2-19.7-15.9-35.5c-1.8-16.6,1.6-30.5,10.2-41.8c8.6-11.3,21.4-17.9,38.4-19.7L927.1,444z"/>
		<path d="M937.6,560.8c16.8,3.2,29,10.7,36.7,22.6c7.7,11.9,10,26.1,6.9,42.5c-3,15.6-9,26.9-18.2,33.6c-9.2,6.8-19.3,9.5-30.1,8.3
			l-2.3-0.2l6.1-32.4l1.6,0.3c4.6,0.9,8.7,0.1,12.1-2.4c3.4-2.4,5.7-6.5,6.7-12.2c1.3-6.7-0.2-12.3-4.3-16.7
			c-4.1-4.4-10.6-7.4-19.2-9.1l-7.6-1.4c-8.8-1.7-15.9-1.3-21.4,1.2c-5.4,2.4-8.8,7.2-10.1,14.2c-1.2,6.5-0.5,11.3,2.2,14.5
			c2.7,3.2,6.1,5.1,10.3,5.9l1.3,0.2l-6.1,32.3l-1.5-0.3c-10.7-2-19.2-8.1-25.5-18.2c-6.3-10.1-7.9-23-5-38.6
			c3.1-16.4,10.4-28.7,21.9-37.1c11.5-8.3,25.7-10.9,42.5-7.7L937.6,560.8z"/>
		<path d="M880.3,694.2l-1.8-0.9c-4.1-2.1-7.7-2.3-10.9-0.6c-3.2,1.7-6,4.9-8.4,9.6c-2.4,4.7-3.3,8.6-2.8,11.8
			c0.5,3.2,2.3,5.6,5.1,7c3,1.5,5.9,1.3,8.6-0.7c2.7-2,7.9-7.7,15.3-17c8.1-10.2,15.8-16.5,23.2-18.8c7.4-2.3,14.8-1.5,22.3,2.4
			c9.5,4.9,14.9,12.5,16.3,22.7c1.4,10.3-1.2,21.8-7.8,34.6c-6.6,12.8-14.7,21.5-24.2,26.3c-9.6,4.8-19.1,4.7-28.7-0.3l-1.3-0.7
			l15.2-29.4l1.7,0.9c3.4,1.7,6.5,2,9.5,0.9c3-1.1,5.6-3.9,7.8-8.2c2.3-4.4,3.2-7.9,2.7-10.6c-0.4-2.7-1.9-4.7-4.3-5.9
			c-2.5-1.3-5.2-1-8,0.8c-2.8,1.8-8,7.6-15.6,17.2c-8,10.1-15.7,16.5-22.9,19.1c-7.2,2.6-14.9,1.9-23-2.3
			c-10.1-5.2-15.9-13-17.6-23.3c-1.7-10.3,1.2-22.6,8.5-36.8c7.3-14.1,15.7-23.6,25.2-28.6c9.5-5,19.5-4.7,29.9,0.6l1.2,0.6
			L880.3,694.2z"/>
		<path d="M878,785l-37.8,44.8l-21.7-18.3l37.8-44.8L878,785z"/>
		<path d="M815.7,825.3c10.1,13.7,14,27.6,11.5,41.5c-2.5,14-10.5,25.9-23.9,35.8c-12.8,9.5-24.9,13.5-36.2,12.2
			c-11.4-1.3-20.6-6.1-27.7-14.4l-1.5-1.8l26.5-19.6l1,1.3c2.8,3.8,6.3,6,10.5,6.5c4.2,0.5,8.6-0.9,13.2-4.4c5.5-4,8.2-9.1,8.2-15.2
			c0-6.1-2.7-12.6-7.9-19.8l-4.6-6.2c-5.3-7.2-10.8-11.8-16.5-13.7c-5.6-1.9-11.3-0.7-17.1,3.5c-5.3,3.9-8.1,8-8.2,12.1
			c-0.2,4.1,1,7.9,3.5,11.4l0.8,1.1l-26.5,19.5l-0.9-1.2c-6.5-8.8-8.6-19-6.3-30.7c2.3-11.7,9.8-22.2,22.6-31.7
			c13.4-9.9,27.2-14,41.2-12.3c14.1,1.7,26.2,9.5,36.4,23.3L815.7,825.3z"/>
		<path d="M720.2,893.2c5.7,16.1,5.3,30.4-1.1,43.1c-6.4,12.6-17.6,21.7-33.3,27.3c-15,5.3-27.8,5.7-38.2,1.1
			c-10.5-4.6-17.9-11.9-22.3-21.9l-1-2.1l31.1-11l0.5,1.5c1.6,4.5,4.3,7.5,8.1,9.3c3.8,1.7,8.5,1.6,13.9-0.3
			c6.4-2.3,10.5-6.3,12.2-12.1c1.7-5.8,1.1-12.9-1.8-21.2l-2.6-7.3c-3-8.5-6.9-14.4-11.7-17.9c-4.8-3.5-10.6-4-17.4-1.6
			c-6.2,2.2-10,5.3-11.4,9.2c-1.4,3.9-1.3,7.9,0.1,11.9l0.4,1.2l-31,11l-0.5-1.4c-3.6-10.3-2.7-20.7,2.9-31.2
			c5.6-10.5,15.9-18.4,30.9-23.7c15.7-5.6,30.1-5.5,43,0.3c13,5.7,22.3,16.7,28,32.9L720.2,893.2z"/>
		<path d="M576,910.8l-0.1-2c-0.2-4.6-1.9-7.8-5-9.7c-3.1-1.9-7.3-2.7-12.5-2.4c-5.3,0.3-9.1,1.4-11.6,3.5c-2.5,2.1-3.7,4.7-3.5,8
			c0.2,3.4,1.8,5.7,4.9,7.1c3.1,1.4,10.6,2.9,22.4,4.7c12.9,1.8,22.2,5.4,27.9,10.6c5.7,5.2,8.8,12,9.2,20.5
			c0.5,10.6-3.3,19.2-11.4,25.6c-8.2,6.4-19.4,9.9-33.9,10.7c-14.3,0.7-26-1.8-34.9-7.7c-8.9-5.9-13.7-14.2-14.2-25l-0.1-1.4l33-1.7
			l0.1,1.9c0.2,3.8,1.5,6.7,4,8.7c2.5,2,6.2,2.9,11.1,2.6c4.9-0.2,8.4-1.2,10.5-3c2.1-1.7,3.1-4,3-6.7c-0.1-2.8-1.7-5-4.7-6.5
			c-3-1.5-10.6-3.1-22.7-4.8c-12.8-1.9-22.1-5.2-28.1-10.2c-5.9-4.9-9.1-12-9.6-21c-0.6-11.3,3.2-20.3,11.3-26.9
			c8.1-6.6,20.1-10.3,36.1-11.1c15.8-0.8,28.3,1.7,37.4,7.4c9.1,5.7,13.9,14.4,14.5,26.2l0.1,1.3L576,910.8z"/>
		<path d="M496.5,954.5l-57.7-10.1l4.9-28l57.7,10.1L496.5,954.5z"/>
		<path d="M430.2,921.1c-6.8,15.7-16.8,25.9-30.2,30.8c-13.3,4.9-27.6,4-43-2.7c-14.6-6.3-24.2-14.7-28.8-25.2
			c-4.6-10.5-5.1-20.9-1.5-31.2l0.7-2.2l30.3,13.1l-0.6,1.5c-1.9,4.3-2,8.4-0.4,12.3c1.6,3.9,5.1,7,10.4,9.3
			c6.3,2.7,12,2.5,17.2-0.5c5.2-3.1,9.6-8.7,13.1-16.8l3.1-7.1c3.6-8.2,4.8-15.3,3.6-21.1c-1.2-5.8-5.1-10.2-11.6-13
			c-6.1-2.6-10.9-3-14.6-1c-3.7,1.9-6.4,4.9-8,8.8l-0.5,1.2L339.3,864l0.6-1.4c4.3-10,12.1-17,23.4-20.9c11.2-3.9,24.2-2.7,38.8,3.7
			c15.3,6.6,25.7,16.5,31.3,29.5c5.6,13,5,27.4-1.8,43.2L430.2,921.1z"/>
		<path d="M323.5,872.5c-11,13-23.6,19.9-37.8,20.7c-14.1,0.8-27.6-4.3-40.4-15.1c-12.1-10.3-18.9-21.1-20.2-32.5
			c-1.3-11.4,1.2-21.5,7.7-30.3l1.4-1.9l25.1,21.4l-1,1.2c-3.1,3.6-4.4,7.5-3.9,11.7c0.4,4.2,2.9,8.1,7.3,11.9
			c5.2,4.4,10.7,5.9,16.6,4.5c5.9-1.4,11.7-5.5,17.4-12.2l5-5.9c5.8-6.8,9-13.2,9.6-19.2c0.6-5.9-1.9-11.2-7.3-15.8
			c-5-4.3-9.6-6-13.7-5.2c-4.1,0.8-7.5,2.8-10.2,6l-0.9,1l-25.1-21.3l1-1.2c7.1-8.3,16.6-12.7,28.4-13.2c11.9-0.4,23.9,4.5,36,14.8
			c12.7,10.8,19.8,23.2,21.4,37.3c1.6,14.1-3.2,27.7-14.3,40.8L323.5,872.5z"/>
		<path d="M235.8,756.8l1.7-1.1c3.8-2.5,5.8-5.6,5.8-9.2c0.1-3.6-1.4-7.6-4.2-12c-2.9-4.4-5.8-7.2-8.9-8.3c-3.1-1.1-5.9-0.8-8.7,1
			c-2.8,1.8-4,4.5-3.6,7.8c0.4,3.4,2.8,10.6,7.3,21.7c4.9,12.1,6.6,21.9,4.9,29.5c-1.6,7.6-6,13.6-13,18.3c-8.9,5.8-18.2,6.8-27.8,3
			c-9.6-3.8-18.4-11.8-26.3-23.8c-7.9-12-11.5-23.4-11-34.1c0.6-10.7,5.3-19,14.4-24.9l1.2-0.8l18.1,27.7l-1.6,1.1
			c-3.2,2.1-5,4.7-5.5,7.8c-0.5,3.1,0.6,6.8,3.3,10.9c2.7,4.1,5.3,6.7,7.9,7.6c2.6,0.9,5,0.7,7.3-0.8c2.4-1.6,3.5-4,3.3-7.4
			c-0.2-3.4-2.6-10.7-7.3-22c-4.9-12-6.6-21.8-5.4-29.4c1.3-7.6,5.7-13.9,13.3-18.9c9.5-6.2,19.1-7.5,28.9-3.9
			c9.8,3.6,19.1,12.1,27.8,25.5c8.7,13.3,12.8,25.3,12.5,36c-0.4,10.7-5.5,19.3-15.3,25.7l-1.1,0.7L235.8,756.8z"/>
		<path d="M157.9,710.1l-20.3-55l26.7-9.8l20.3,55L157.9,710.1z"/>
		<path d="M153.6,636c-16.9,2-30.9-1.5-41.8-10.6c-10.9-9.1-17.3-21.9-19.3-38.5c-1.9-15.8,0.6-28.3,7.3-37.5
			c6.8-9.2,15.5-14.9,26.3-17l2.3-0.5l3.9,32.8l-1.6,0.2c-4.7,0.6-8.3,2.5-10.8,5.9c-2.5,3.4-3.4,7.9-2.8,13.7
			c0.8,6.8,3.8,11.6,9.1,14.6c5.3,3,12.3,3.9,21.1,2.9l7.6-0.9c8.9-1.1,15.6-3.6,20.1-7.5c4.5-4,6.3-9.5,5.4-16.6
			c-0.8-6.6-2.9-10.9-6.4-13.1c-3.5-2.2-7.4-3-11.6-2.6l-1.3,0.2l-3.9-32.7l1.5-0.2c10.9-1.3,20.8,2,29.8,9.7
			c9,7.8,14.4,19.6,16.3,35.4c2,16.5-1.3,30.5-9.8,41.9c-8.5,11.4-21.2,18.1-38.2,20.1L153.6,636z"/>
		<path d="M141.8,519.4c-16.8-3-29.1-10.4-36.9-22.2c-7.8-11.8-10.2-26-7.3-42.5c2.8-15.7,8.7-26.9,17.9-33.8
			c9.1-6.9,19.1-9.8,30-8.6l2.3,0.2l-5.8,32.5l-1.6-0.3c-4.6-0.8-8.7,0-12.1,2.5c-3.4,2.5-5.6,6.6-6.6,12.3
			c-1.2,6.7,0.3,12.3,4.5,16.6c4.2,4.4,10.6,7.3,19.3,8.9l7.6,1.3c8.8,1.6,16,1.1,21.4-1.4c5.4-2.5,8.7-7.3,10-14.3
			c1.2-6.5,0.4-11.3-2.4-14.4c-2.7-3.1-6.2-5.1-10.4-5.8l-1.3-0.2l5.7-32.4l1.5,0.3c10.8,1.9,19.3,7.9,25.7,17.9
			c6.4,10,8.2,22.9,5.4,38.6c-2.9,16.4-10.1,28.8-21.5,37.3c-11.4,8.5-25.5,11.2-42.4,8.2L141.8,519.4z"/>
		<path d="M197.6,385.3l1.8,0.9c4.1,2.1,7.7,2.2,10.9,0.4c3.2-1.8,5.9-5,8.3-9.7c2.4-4.7,3.3-8.7,2.7-11.9c-0.6-3.2-2.3-5.5-5.2-7
			c-3-1.5-5.9-1.3-8.6,0.8c-2.7,2-7.8,7.8-15.2,17.2c-8,10.3-15.7,16.7-23,19.1c-7.4,2.4-14.8,1.7-22.3-2.1
			c-9.5-4.8-15-12.3-16.6-22.5c-1.5-10.2,0.9-21.8,7.4-34.7c6.5-12.8,14.4-21.7,24-26.6c9.5-4.9,19.1-4.9,28.7,0l1.3,0.6l-14.9,29.6
			l-1.7-0.9c-3.4-1.7-6.5-2-9.5-0.8c-3,1.2-5.5,3.9-7.8,8.3c-2.2,4.4-3.1,7.9-2.6,10.6c0.5,2.7,1.9,4.7,4.4,5.9c2.5,1.3,5.2,1,8-0.9
			c2.8-1.9,8-7.6,15.4-17.3c7.9-10.2,15.5-16.7,22.7-19.4c7.2-2.7,14.9-2,23,2.1c10.1,5.1,16.1,12.8,17.8,23.1
			c1.8,10.3-0.9,22.6-8.1,36.9c-7.1,14.2-15.4,23.8-24.9,28.8c-9.5,5.1-19.4,5-29.9-0.3l-1.2-0.6L197.6,385.3z"/>
		<path d="M198.9,294.5l37.3-45.2l21.9,18.1l-37.3,45.2L198.9,294.5z"/>
		<path d="M260.8,253.5c-10.3-13.6-14.3-27.4-11.9-41.4c2.3-14,10.2-26,23.5-36.1c12.7-9.6,24.7-13.8,36.1-12.6
			c11.4,1.2,20.7,5.9,27.9,14.1l1.6,1.7l-26.3,19.9l-1-1.3c-2.8-3.8-6.4-5.9-10.5-6.4c-4.2-0.5-8.6,1-13.2,4.5
			c-5.4,4.1-8.1,9.2-8,15.2c0.1,6.1,2.8,12.6,8.1,19.7l4.6,6.1c5.4,7.2,10.9,11.7,16.6,13.5c5.7,1.9,11.3,0.6,17.1-3.7
			c5.3-4,8-8,8.1-12.2c0.1-4.1-1.1-7.9-3.7-11.3l-0.8-1l26.2-19.8l0.9,1.2c6.6,8.7,8.8,18.9,6.6,30.6c-2.2,11.7-9.6,22.3-22.3,31.9
			c-13.3,10-27,14.3-41.1,12.7c-14.1-1.6-26.3-9.2-36.6-22.9L260.8,253.5z"/>
		<path d="M355.5,184.6c-5.9-16-5.6-30.4,0.7-43.1c6.3-12.7,17.3-21.9,33-27.7c14.9-5.5,27.7-6,38.2-1.5
			c10.5,4.4,18.1,11.7,22.6,21.6l1,2.1l-31,11.3l-0.6-1.5c-1.6-4.4-4.4-7.5-8.2-9.2c-3.8-1.7-8.5-1.5-13.9,0.5
			c-6.4,2.3-10.4,6.4-12.1,12.2c-1.7,5.8-1,12.9,2,21.2l2.6,7.2c3.1,8.4,7.1,14.3,11.9,17.8c4.9,3.4,10.7,3.9,17.4,1.4
			c6.2-2.3,10-5.4,11.3-9.3c1.3-3.9,1.3-7.9-0.2-11.9l-0.5-1.2l30.9-11.3l0.5,1.4c3.8,10.3,2.9,20.7-2.6,31.2
			c-5.5,10.6-15.7,18.6-30.6,24c-15.6,5.7-30,5.8-43,0.2c-13-5.6-22.5-16.5-28.4-32.5L355.5,184.6z"/>
		<path d="M499.5,165.4l0.1,2c0.3,4.6,2,7.8,5.1,9.6c3.1,1.8,7.3,2.6,12.6,2.3c5.3-0.3,9.1-1.5,11.6-3.7c2.5-2.1,3.6-4.8,3.4-8
			c-0.2-3.4-1.9-5.7-5-7c-3.1-1.3-10.6-2.8-22.5-4.5c-12.9-1.7-22.3-5.1-28.1-10.3c-5.8-5.2-8.9-11.9-9.4-20.4
			c-0.7-10.6,3.1-19.2,11.1-25.7c8.1-6.5,19.3-10.2,33.7-11c14.3-0.9,26,1.6,35,7.3c9,5.8,13.8,14,14.5,24.8l0.1,1.4l-33,2l-0.1-1.9
			c-0.2-3.8-1.6-6.6-4.1-8.6c-2.5-2-6.2-2.8-11.1-2.5c-4.9,0.3-8.4,1.3-10.5,3.1s-3,4-2.9,6.8c0.2,2.8,1.8,5,4.8,6.5
			c3,1.5,10.6,3,22.7,4.6c12.8,1.7,22.2,5,28.2,9.9c6,4.9,9.2,11.9,9.8,20.9c0.7,11.3-3,20.3-11,27c-8,6.7-20,10.6-35.9,11.5
			c-15.8,1-28.3-1.4-37.4-7c-9.1-5.6-14.1-14.3-14.8-26l-0.1-1.3L499.5,165.4z"/>
		<path d="M578.6,120.8l57.8,9.4l-4.6,28.1l-57.8-9.4L578.6,120.8z"/>
	</g>
</g>
</svg>
