<?xml version="1.0" encoding="utf-8"?>
<!-- Generator: Adobe Illustrator 22.0.0, SVG Export Plug-In . SVG Version: 6.00 Build 0)  -->
<svg version="1.1" id="Capa_1" xmlns="http://www.w3.org/2000/svg" xmlns:xlink="http://www.w3.org/1999/xlink" x="0px" y="0px"
	 viewBox="0 0 1080 1080" style="enable-background:new 0 0 1080 1080;" xml:space="preserve">
<style type="text/css">
	.st0{fill:#FFFFFF;}
	.st1{fill:#FFD110;}
</style>
<g>
	<g>
		<g>
			<g>
				<path d="M870.7,478.4c-0.9-0.2-1.9-0.7-2.8-0.5c-7.4,1.6-14.8,3.4-22.2,5.1c-5.5,1.2-11,2.3-16.5,3.5
					c-5.8,1.2-11.5,2.5-17.3,3.6c-4.9,0.9-9.8,1.7-14.8,2.2c-3.2,0.3-6.1,1.8-9.2,2.5c-6.3,1.3-12.6,2.3-18.9,3.5
					c-3.5,0.6-6.9,1.4-10.4,2c-5.6,1-11.1,1.8-16.7,2.8c-2.8,0.5-5.5,1.3-8.2,1.9c-4.4,1-8.8,1.8-13.1,2.8c-8.5,1.8-17,3.7-25.5,5.5
					c-6,1.2-11.9,2.9-17.9,3.4c-6.3,0.5-12.8,0.1-19.2-0.3c-4.3-0.3-8.4-5.5-9.3-10.2c-0.9-4.6-0.1-9.1,0.9-13.6
					c1.6-6.7,3.1-13.5,4.5-20.2c1.2-5.8,2.2-11.7,3.1-17.6c0.6-3.6,0.8-7.3,1.3-10.9c0.5-3.6,1.1-7.2,1.7-10.9c0.5-3.5,1-7,1.5-10.5
					c0.6-5,1.1-10,1.6-15c0.2-2.3,0.4-4.7,0.4-7c0.1-5.2,0-10.3,0-15.5c0-3.7,0.5-7.4,0.3-11.1c-0.2-7.1-0.7-14.1-1.2-21.2
					c-0.4-5.3-0.9-10.7-1.6-16c-0.9-7.4-2.1-14.8-3.1-22.1c-0.5-4-0.6-8-1.3-11.9c-0.9-5.2-1.9-10.5-3.4-15.6
					c-2.3-7.8-5.2-15.4-7.7-23.1c-2.1-6.5-4.1-13-6.2-19.6c-1.1-3.5-2.4-6.9-3.5-10.4c-1.7-5.4-3.5-10.8-5.1-16.2
					c-2.9-9.5-5.8-19.1-8.5-28.7c-2.4-8.6-4.5-17.3-6.7-26c-2.2-8.7-4.3-17.5-6.7-26.2c-1.8-6.7-3.9-13.2-5.7-19.9
					c-0.4-1.3,0-3,0.4-4.4c1-3.5,3.4-6.1,6.3-8c1-0.6,2.7-0.4,4-0.3c4.5,0.6,8,2.8,10,6.9c0.9,1.8,1.3,3.8,1.9,5.8
					c2,6.8,4,13.6,6,20.4c3.3,11.2,6.7,22.4,10,33.6c2,6.8,3.9,13.6,5.9,20.4c2.8,9.7,5.7,19.4,8.5,29.1c2,6.8,3.9,13.6,5.8,20.4
					c2,7.1,3.7,14.2,5.8,21.2c2.7,9.1,5.5,18.2,8.5,27.2c1.6,4.8,3.8,9.5,5.7,14.2c2.8,7.1,5.5,14.2,8.3,21.2c1.6,4,3.5,8,5.3,12
					c3.7,8.2,7.3,16.5,11.2,24.7c4.8,10.1,10.7,19.6,16.6,29.1c3.4,5.5,6.7,11.1,9.7,16.8c5.7,11,11.9,21.7,19.6,31.5
					c4.6,5.9,9.8,11.2,15,16.6c1.9,2,4.5,3.5,5.2,6.5c0.9,4,1.6,8-2,11.3c-2.9,2.6-7.4,3.5-10.7,1.5c-2.5-1.5-5-3.3-7-5.4
					c-5.6-6-11.1-12.1-16.4-18.3c-8.6-10.2-15.2-21.7-21.5-33.5c-4.5-8.5-9.7-16.6-14.5-24.9c-3.3-5.7-6.5-11.5-9.7-17.3
					c-2.2-4-4.2-8.1-6.4-12.1c-0.2-0.3-0.9-0.6-1.4-0.5c-0.4,0.1-0.9,0.6-0.9,1c-0.1,2.8-0.1,5.7-0.1,8.5c0,0.5,0,1,0,1.6
					c0.1,3.8,0.4,7.7,0.3,11.5c0,3.2-0.5,6.3-0.7,9.5c-0.1,1.3,0,2.6,0,3.9c0,1.6,0,3.3-0.1,4.9c0,0.9-0.3,1.8-0.3,2.7
					c-0.5,6.2-1,12.4-1.6,18.5c-0.1,1.7-0.1,3.4-0.5,5c-0.3,1.5-0.8,2.9-1.4,4.3c-0.8,2.1-0.9,4.2-0.8,6.4c0.1,3-0.4,6.1-1,9.1
					c-0.3,1.6-0.9,3.1-0.4,4.9c0.9,3.2-0.4,6.3-0.9,9.4c-0.3,1.8-1.5,3.5-0.6,5.4c0.1,0.3-0.2,0.7-0.3,1.1c0,1.7,0,3.4,0,5.1
					c0,0.8,0.2,1.9-0.3,2.5c-3.5,4.6-4.3,9.9-4.6,15.4c-0.1,1.4,0.9,2.5,2.5,2.4c3.5-0.3,7.1-0.7,10.5-1.3
					c8.4-1.6,16.7-3.3,25.1-4.9c7.1-1.4,14.2-2.9,21.3-4.2c9.9-1.9,19.9-3.7,29.8-5.6c5.8-1.1,11.5-2.4,17.3-3.4
					c7-1.3,14-2.3,21-3.6c5.3-1,10.6-2.2,16-3.3c4.6-0.9,9.2-1.7,13.8-2.6c3.6-0.7,7.3-1.5,10.9-2.4c6.7-1.5,13.5-3.1,20.2-4.7
					c4.9-1.2,9.8-2.4,14.7-3.6c5.4-1.4,10.8-3.2,16.3-4.3c12.7-2.6,25-6.8,37.5-10.2c4.2-1.1,8.2-2.9,12.3-4.3
					c2.8-1,5.6-2.4,8.5-2.9c7.2-1.2,12.6,0.4,14,9c0.9,5.9-1.7,10.6-6.6,12.3c-3.9,1.4-7.7,3.1-11.4,4.9c-6.2,3.1-12.4,6.5-18.5,9.8
					c-5.1,2.7-10.3,5.2-15.3,8.1c-3.5,2-6.8,4.5-10.3,6.6c-1.6,1-3.6,1.3-5.2,2.3c-3.6,2.1-7,4.4-10.6,6.5c-2.4,1.4-5,2.2-7.4,3.7
					c-6.4,4-13,7.8-19,12.4c-3.5,2.7-6.7,5.8-10.9,7.6c-1.6,0.7-3.1,1.6-4.5,2.7c-7.6,5.6-15.2,11.2-22.7,16.9
					c-3.6,2.6-7.2,5.2-10.7,7.9c-3,2.3-5.8,4.7-8.6,7.2c-4.4,3.9-8.8,7.9-13.1,11.9c-2,1.9-3.6,4.2-5.5,6.2
					c-1.7,1.8-3.7,3.4-5.5,5.1c-3,3-5.9,6-8.7,9.2c-1.2,1.3-2.2,2.9-2.9,4.5c-1,2.2-2.7,3.6-4.6,5c-3.7,2.7-5.5,6.5-7,10.7
					c-0.4,1-1.1,2.5-2,2.7c-3,0.9-4.3,3.5-5.8,5.7c-4.7,7.4-9.2,15-13.7,22.6c-1.6,2.7-3.2,5.5-4.7,8.3c-0.9,1.7-1.4,3.7-2.4,5.4
					c-3.7,6.4-7.2,12.8-9.2,20c-0.8,2.9-2.5,5.5-3.4,8.3c-1.2,3.5-2.1,7.2-3.2,10.8c-0.7,2.1-1.5,4.2-2.4,6.2
					c-1.7,4.3-2.8,8.5-1.5,13.2c0.5,1.8-0.2,4-0.5,6c-1.1,6.3-2.4,12.6-3.4,18.9c-0.6,3.7-0.6,7.5-0.8,11.2
					c-0.1,1.9,0.2,3.9-0.1,5.7c-0.3,1.8-1.2,3.5-2,5.2c-1.1,2.3-3,3-5.8,2.5c-1.5-0.3-3.1-0.1-4.6-0.4c-6.5-1.6-9.1-6.1-8.1-12.9
					c0.4-2.9-0.1-6-0.3-8.9c-0.2-3-0.6-6-0.7-9.1c-0.4-7.9-0.5-15.8-1.3-23.7c-1-10.4-2.9-20.7-5.6-30.8c-1.7-6.5-4-12.7-6.8-18.7
					c-0.9-2-0.9-4.5-1.3-6.8c-0.7-4.3,3.2-8.8,7.6-8.9c0.9,0,1.7,0,2.6,0c5.1,0,9.1,3,11.1,7.8c3.9,9.3,6.4,19,8.6,28.8
					c0.1,0.6,0.9,1.5,1.2,1.5c0.7-0.2,1.6-0.7,1.8-1.3c1.6-4,2.9-8.1,4.5-12c2.3-5.8,4.4-11.6,7.3-17.1c4.7-9,9.7-17.7,14.9-26.4
					c4.3-7.1,8.8-14.2,13.5-21c3.9-5.6,8.2-11.1,12.5-16.4c4-4.9,8.3-9.5,12.5-14.1c3.5-3.9,7-7.7,10.6-11.4
					c5.2-5.2,10.4-10.4,15.8-15.4c4.7-4.3,9.8-8.2,14.6-12.4c10.1-8.7,21.1-16.2,32-23.8c5.6-3.9,11.5-7.4,17.2-11.3
					c3.8-2.5,7.4-5.3,11.1-8c2.3-1.6,4.7-3.1,7.1-4.6c0.5-0.3,0.9-0.7,1.4-1C870.7,479,870.7,478.7,870.7,478.4z"/>
				<path d="M693,819.9c-2.6,0-5.1-0.1-7.7-0.4c-3.6-0.2-7.9-0.7-13.1-1.9c-35.5-8.7-58.1-40.2-55.5-76.2c-0.1-0.7-0.1-1.4-0.1-2
					c-0.1-0.9-0.1-1.7-0.2-2.5c-0.2-2.4-0.4-4.7-0.6-7.1c-0.2-3.1-0.3-6.2-0.4-9.3c-0.2-4.4-0.3-8.6-0.7-12
					c-0.6-6.8-1.9-13.8-3.8-20.8c-0.7-2.7-1.8-5.5-3.2-8.5c-5-10.8-6-20.3-6.4-24.4c-2.7-19.3,3-39,15.7-54.2
					c9.1-10.9,21-18.6,34.2-22.5c-31.1-3.4-57.7-28.6-63.6-60.7c-3-16.3-0.5-30.1,1.6-39.1c1.6-6.9,3-12.7,4.1-18.4
					c0.9-4.3,1.7-9,2.6-14.8c0.1-0.8,0.2-1.7,0.3-2.6c0.2-2.3,0.5-4.5,0.8-6.8c0.4-2.7,0.8-5.4,1.2-8.1c0.2-1.2,0.4-2.4,0.6-3.6
					l0.2-1.2c0.4-2.5,0.7-5,1-7.5c0.5-4.6,1-9.1,1.4-13.7c0.1-1.3,0.1-1.8,0.1-1.9c0-2.2,0-4.4,0-6.6c0-3,0-5.9,0-8.9
					c0-2.3,0.1-4.7,0.3-7c0-0.6,0.1-1.2,0.1-1.8c-0.2-5.4-0.5-11.4-1-18.3c-0.3-4.3-0.7-8.6-1.2-12.7c-0.5-3.7-1-7.3-1.5-11
					c-0.5-3.6-1-7.2-1.5-10.9c-0.3-2.6-0.6-5.2-0.8-7.8c-0.1-0.7-0.1-1.4-0.2-2.1c-0.4-2.3-1.1-6.1-1.6-7.9
					c-1.1-3.6-2.4-7.6-3.9-11.8c-1.1-3.2-2.2-6.4-3.3-9.7c-1.3-4-2.6-8-3.8-12.1c-0.8-2.6-1.6-5.2-2.5-7.9c-0.4-1.3-0.9-2.6-1.3-3.9
					c-0.7-2.1-1.4-4.2-2.1-6.3c-1.9-5.7-3.7-11.5-5.5-17.4l-1.2-3.9c-2.5-8.4-5.2-17.1-7.6-26c-2-7.3-3.8-14.3-5.5-21.1l-1.6-6.2
					c-0.8-3.3-1.7-6.6-2.5-9.9c-1.3-5.2-2.6-10.4-4-15.6c-0.7-2.8-1.5-5.5-2.4-8.2c-1.2-3.9-2.3-7.9-3.4-11.8
					c-4.7-17.7-0.7-32.2,0.6-36.9c5-17.9,16.2-33,32.4-43.5c9.4-6.1,25.1-12.7,46.7-9.7c25.1,3.6,45.8,18.5,56.9,40.8
					c3.4,6.8,5,12.8,5.8,15.7l0.1,0.3l9.1,30.6c2.3,7.8,4.6,15.6,6.9,23.4c1.2,4.1,2.4,8.2,3.6,12.4l11.3,39
					c1.9,6.5,3.8,13,5.6,19.4c0.9,3.1,1.7,6.2,2.5,9.3c1,3.7,1.9,7.3,3,11c2.9,9.8,5.4,17.8,7.8,25.1c0.3,0.8,1.2,2.9,1.9,4.5
					c0.9,2.2,1.8,4.3,2.7,6.5c1.2,3.1,2.4,6.1,3.6,9.1c1.5,3.9,3,7.8,4.6,11.7c0.9,2.3,2,4.6,3.1,6.9l4.4,9.7
					c2.6,5.8,5.1,11.3,7.6,16.6c3.3,6.8,7.7,14.2,13.3,23.1c4.6,7.4,8.5,14.2,12,20.9c5.2,9.9,9.3,16.6,13.3,21.8
					c1.5,1.9,3.6,4.2,6,6.7c0.4-0.1,0.9-0.2,1.3-0.2c2-0.4,3.9-0.7,5.8-1.1c3-0.6,6.1-1.3,9.1-2c6.6-1.5,13.1-3,19.7-4.6
					c4.5-1.1,9-2.2,13.4-3.3c1.5-0.4,3-0.8,4.4-1.2c4.1-1.2,9.1-2.6,14.9-3.8c5.9-1.2,12.8-3.2,20-5.4c4.5-1.3,9-2.6,13.5-3.9
					c1-0.3,2-0.7,3-1.1c1.6-0.6,3.2-1.2,4.8-1.8l0.6-0.2c3.5-1.4,10.2-4.1,18.8-5.5c26.6-4.4,45.4,4.1,56.5,12.1
					c15.6,11.2,25.9,28.3,29.1,48.3c5.7,35.4-13.5,68.6-46.7,80.6c-1.5,0.6-3.1,1.2-4.7,2c-3.7,1.9-7.4,3.8-11.1,5.8
					c-2.1,1.1-4.2,2.3-6.3,3.4c-1.8,1-3.7,1.9-5.5,2.9c-2.6,1.4-5.3,2.7-7.9,4.2c-0.7,0.4-1.3,0.8-1.9,1.3c-2.4,1.6-4.8,3.2-7.3,4.7
					c-3.4,2-6.5,3.5-8.9,4.6c-0.1,0.1-0.3,0.2-0.4,0.3c-2.5,1.6-5,3.1-7.6,4.6c-3.2,1.8-5.9,3.1-7.9,4l-1.2,0.7
					c-4.2,2.6-8.2,5-10.9,7l-0.9,0.7c-3.4,2.8-9.2,7.6-17.5,11.8c-4.1,3-8.2,6.1-12.3,9.1l-7.7,5.7c-1.4,1.1-2.9,2.1-4.3,3.2
					c-1.8,1.3-3.6,2.6-5.4,4c-1.9,1.4-3.7,3-5.5,4.5c-3.1,2.7-6.6,5.8-10,9.1c-1.2,1.4-2.9,3.4-5,5.6c-2.5,2.6-4.6,4.5-6.1,5.8
					l-0.4,0.4c-0.9,0.9-1.9,1.9-2.9,2.9c-3.1,5-6.4,9.1-9.6,12.4c-3.6,6.8-8.2,12.8-13.6,17.9c-2.1,3.4-4.2,7-6.4,10.6l-2.6,4.4
					c-0.8,1.3-1.4,2.4-2,3.4c-1,2.5-2.5,5.9-4.8,9.7c-2.2,3.8-2.9,5.3-3.2,5.9c-1.6,5.4-3.5,9.8-4.7,12.5c-0.1,0.4-0.2,0.9-0.4,1.3
					c-0.6,2.3-1.3,4.5-2,6.7c-0.2,0.8-0.5,1.5-0.7,2.3c0,7.2-1.2,12.7-1.8,15.6c-0.4,2.6-0.9,5-1.4,7.5c-0.6,3-1.1,6-1.6,9
					c-0.1,0.9-0.1,1.8-0.1,2.7l0,0.8c0.1,3.4,0.1,9.3-1.2,16.2c-1.8,9.5-5.1,16.4-6.7,19.7l-0.2,0.3
					C742.3,805.4,718.8,819.9,693,819.9z M681.3,818.9C681.4,818.9,681.4,818.9,681.3,818.9C681.4,818.9,681.4,818.9,681.3,818.9z
					 M761.5,746.8l0,0.7C761.5,747.3,761.5,747.1,761.5,746.8z M617.4,734.9c0,0,0,0.1,0,0.1C617.4,735,617.4,735,617.4,734.9z
					 M644.4,724.8c0,0.1,0.1,0.2,0.1,0.3C644.4,725,644.4,724.9,644.4,724.8z M601.4,655c0,0.2,0.1,0.5,0.1,0.8
					C601.4,655.6,601.4,655.3,601.4,655z M637.9,651.4C637.9,651.4,637.9,651.4,637.9,651.4C637.9,651.4,637.9,651.4,637.9,651.4z
					 M878.7,570.3C878.7,570.3,878.6,570.3,878.7,570.3C878.6,570.3,878.7,570.3,878.7,570.3z M908.9,550.3l-0.2,0.1
					C908.7,550.4,908.8,550.4,908.9,550.3z"/>
			</g>
			<g>
				<path d="M537.5,393.7c-0.2,0.8-0.8,1.7-0.6,2.3c1.1,3.1,1.7,6.1,2,9.4c0.3,3.4,2.1,6.6,2.8,9.9c1.1,5.7,1.7,11.4,2.7,17.1
					c0.3,1.8,0.8,3.5,1.2,5.2c1.3,5.9,2.7,11.8,3.9,17.8c0.8,4.2,1.3,8.5,2,12.7c0,0.1,0,0.1,0,0.2c2.4,3.4,1.5,7.5,2.6,11.1
					c0.6,2.1,1.1,4.1,0.7,6.4c-0.5,2.2-0.2,4.4,0.9,6.6c2.1,3.8,2.6,7.9,1.8,12.2c-0.2,0.9,0,1.8,0.2,2.7c1,5.3,3.2,10.5,2.5,16.1
					c0,0.4,0.1,0.8,0.2,1.1c1.8,4.9,2.5,10,2.5,15.1c0,0.7,0.2,1.4,0.4,2.1c1,4.1,0.6,8.1-0.3,12.2c-0.2,1,0.7,2.2,1,3.4
					c0.4,1.3,1,2.6,1.2,4c0.4,2.4,0.3,5,0.9,7.3c1,3.4,0.7,6.6-0.7,9.8c-1,2.4-1,4.8,0.9,6.9c2.1,2.3,1.8,5.2,2,7.8
					c0.4,6.2,0.4,12.5,0.4,18.8c0,2-0.5,4.1-0.7,6.1c-0.1,0.8-0.2,1.6,0,2.3c1.4,5.9,0.5,11.8,0.8,17.7c0,0.5-0.1,1.1,0,1.6
					c0.2,0.6,0.6,1.2,1.2,1.6c0.2,0.1,1.1-0.4,1.4-0.8c2.3-3.3,4.5-6.7,7-9.9c2.2-2.9,4.6-5.5,7-8.3c5.6-6.5,11.1-13.1,16.9-19.5
					c1.9-2.2,4.4-3.8,6.5-5.8c3.7-3.6,7.2-7.4,10.9-10.8c3.5-3.2,7.3-6.1,11-9.2c3.2-2.6,6.3-5.3,9.6-7.9c2.8-2.2,5.7-4.2,8.6-6.2
					c8.3-5.5,16.6-10.9,24.9-16.3c2.5-1.6,4.9-3.4,7.5-4.7c4.1-2.1,8.5-2.3,12.7-0.2c0.7,0.3,1.3,1.1,1.6,1.9c1.2,2.5,2.3,5,3.2,7.6
					c0.3,0.8,0.4,2,0.1,2.7c-1.1,2.4-2.5,4.8-3.8,7.1c-0.3,0.5-0.8,0.9-1.3,1c-7.3,2.5-13.8,6.5-20.3,10.4c-4.6,2.8-9.5,5.3-14,8.5
					c-5.6,3.9-10.8,8.3-16.1,12.6c-3.4,2.7-6.8,5.6-10.1,8.5c-1.1,1-1.9,2.3-3,3.3c-3.9,3.7-8,7.3-11.8,11.1
					c-3.1,3.1-5.9,6.5-8.8,9.8c-2,2.3-4,4.6-6,6.9c-5.6,6.2-10.7,12.9-15.1,20c-4.9,8.1-9.5,16.4-14.3,24.6
					c-1.2,2.1-2.7,4.1-4.1,6.1c-1.6,2.4-2.9,4.7-3.6,7.7c-1.2,5.6-4.3,10.5-7.5,15.2c-1.6,2.4-3.6,3.6-6.5,3.4
					c-1.9-0.1-4,0.2-5.8-0.3c-4.8-1.3-7-5.4-5.8-10.5c1.5-6.7,3.2-13.4,4.5-20.2c1-5,1.4-10.1,2.1-15.1c0.7-5.4,1.3-10.7,1.9-16.1
					c0.3-2.3,0.4-4.7,0.4-7c0.2-5.3,0.3-10.7,0.4-16c0.1-6.1,0.1-12.2,0-18.3c-0.2-7.2-0.3-14.4-0.8-21.6
					c-0.4-5.3-1.5-10.5-2.2-15.8c-0.1-0.5-0.1-1-0.1-1.6c0.4-4.5-0.6-8.9-1.6-13.2c-0.2-0.8-0.3-1.6-0.4-2.5
					c-0.5-4.9-1-9.7-1.5-14.6c-0.3-2.8-0.5-5.7-0.8-8.5c-0.5-4.1-1.1-8.2-1.7-12.2c-0.7-4.8-1.4-9.6-2.3-14.4
					c-0.5-2.9-1.4-5.7-1.9-8.6c-0.8-4.2-1.3-8.4-2-12.5c-1.2-7-2.3-13.9-3.6-20.8c-0.8-4.2-1.7-8.4-2.6-12.6
					c-1.6-8.1-3.2-16.2-4.9-24.3c-1.6-7.5-3.3-15-5.1-22.5c-2-8.4-4-16.8-6.3-25.1c-1.9-6.9-4.3-13.6-6.7-20.4
					c-1-2.9-2.6-5.6-3.8-8.4c-0.5-1.1-1.2-2.3-1.2-3.4c0.2-4-1.2-7.6-2.3-11.3c-2-6.9-4.2-13.8-6.5-20.7c-2.4-7.5-4.8-14.9-7.5-22.3
					c-1.6-4.5-3.7-8.8-5.6-13.3c-3.1-7.2-6.2-14.5-9.3-21.7c-3.9-9.2-7.7-18.4-11.5-27.7c-3.3-8-6.5-16-9.9-24
					c-3.7-8.6-7.5-17.1-11.3-25.7c-2-4.7-3.9-9.5-5.9-14.2c-1.3-3-2.9-5.9-4.2-8.8c-2.9-6.1-5.6-12.2-8.6-18.3
					c-1.4-2.9,0.8-8.2,2.9-9.5c3.1-1.9,6.3-3.7,10.2-3.5c3,0.1,5.1,1.4,6.4,3.9c2.3,4.2,4.4,8.6,6.9,12.7c5.7,9.4,9.9,19.5,14,29.6
					c1.4,3.6,3.4,6.9,5,10.4c2.1,4.5,4,9.1,6.1,13.7c2.6,5.8,5.2,11.5,7.7,17.3c3.2,7.8,6.3,15.6,9.4,23.5c1.8,4.6,3.6,9.2,5.1,13.8
					c2.5,7.4,4.7,15,7.3,22.4c2.6,7.3,5.5,14.6,8.7,21.7c3.4,7.6,7.3,14.9,10.9,22.4c2.6,5.4,4.9,11,7.7,16.4
					c4,7.9,8.3,15.7,12.5,23.5c2.9,5.4,5.8,10.8,8.9,16.2c3.8,6.8,7.6,13.7,11.7,20.3c7.4,12,15,23.9,22.6,35.7
					c6.6,10.3,13.2,20.6,20.1,30.7c2.9,4.3,6.5,8.2,9.8,12.2c2.7,3.3,5.6,6.5,8.5,9.6c1.1,1.2,2.5,2.2,3.6,3.5c2.4,2.6,3,6,3.6,9.4
					c0.8,4.9-1.2,7.2-6,8.9c-5.7,2-9.4-0.9-13-4.4c-2.6-2.6-4.8-5.8-7.4-8.5c-7.1-7.4-13.8-15.2-19.3-23.9
					c-4.3-6.9-8.5-13.7-12.9-20.5c-2.9-4.5-6.1-8.9-9-13.4c-2.9-4.4-5.8-8.8-8.5-13.3c-3.3-5.4-6.4-10.8-9.6-16.2
					c-1.3-2.2-2.6-4.4-3.8-6.6C538.1,393.7,537.8,393.7,537.5,393.7z"/>
				<path d="M553,772.2c-0.8,0-1.7,0-2.5,0c-3.8,0-11,0-19.6-2.3c-37.1-9.7-59.3-46.8-50.7-84.5l1.4-5.8c1-4.4,2-8.6,2.7-12.2
					c0.3-1.5,0.6-4.1,0.9-6.7c0.2-1.5,0.4-3,0.5-4.5c0.6-5,1.3-10,1.8-15.1c0-0.6,0.1-1.4,0.1-2.1c0.2-5,0.3-9.9,0.4-14.8
					c0.1-5.6,0.1-11.1,0-16.3l0-0.9c-0.1-6.2-0.2-12.1-0.6-17.3c-0.1-1-0.5-3.5-0.8-5.6c-0.3-2-0.7-4.1-1-6.1
					c-0.5-3.1-0.7-6.4-0.7-9.6c0,0,0,0,0,0l-0.1-0.4c-0.9-4.2-1.3-7.6-1.5-9.2c-0.5-5.1-1.1-10.1-1.6-15c-0.1-1.3-0.3-2.7-0.4-4.1
					c-0.1-1.1-0.2-2.1-0.3-3.2c-0.4-3.5-0.9-7.1-1.5-10.7l-0.1-1c-0.6-3.8-1.1-7.5-1.8-11.2l-0.2-1c-0.6-2.6-1.2-5.2-1.7-7.8
					c-0.6-3.1-1-6.1-1.5-9.2c-0.2-1.4-0.4-2.9-0.7-4.3l-0.2-1.4c-1-6.2-2.1-12.4-3.2-18.6c-0.3-1.9-0.8-3.9-1.2-5.8
					c-0.4-1.8-0.8-3.7-1.2-5.5c-0.6-2.9-1.2-5.9-1.8-8.9c-1-4.9-1.9-9.9-3-14.8c-1.4-6.6-3-13.7-4.7-20.9l-0.6-2.5
					c-1.7-7.2-3.3-13.9-5.1-20.2c-1.3-4.6-3-9.5-4.9-14.9l-0.1-0.2c-0.7-1.4-1.4-2.9-2.1-4.4c-1.7-3.5-5.6-11.8-6.7-23.3
					c-0.1-0.2-0.1-0.4-0.2-0.6c-1.5-5.2-3.3-10.8-5.2-16.6l-1.4-4.4c-2-6.3-4-12.2-6-17.8c-0.3-1-1.3-3-2.1-4.9
					c-0.7-1.7-1.5-3.3-2.2-5L419,294c-2.2-5.2-4.5-10.4-6.7-15.7c-3.4-8.1-6.7-16.1-10-24.2l-1.6-3.8c-1.2-2.8-2.3-5.7-3.5-8.5
					c-2-4.9-4-9.8-6.1-14.7c-2-4.7-4-9.3-6.1-14c-1.7-3.8-3.4-7.6-5-11.4c-1.2-2.7-2.2-5.3-3.3-8c-0.8-2-1.6-4-2.5-6
					c-0.4-0.9-0.8-1.7-1.2-2.5c-0.8-1.6-1.5-3.1-2.3-4.7c-1.1-2.3-2.1-4.6-3.2-6.9c-1.6-3.5-3.3-7-5-10.5
					c-15.5-31.8-3.3-72.2,27.1-90.3c5.9-3.5,21.8-12.9,43.9-12.2c24.7,0.8,46.7,14.2,58.7,35.8c1.2,2.2,2.4,4.5,3.6,6.8
					c0.8,1.5,1.7,3.3,2.1,4c8.1,13.5,13.7,26.8,18.3,38.3c0.3,0.6,0.6,1.2,0.9,1.8c1,2.1,2.1,4.1,3,6.2c1.5,3.3,2.9,6.5,4.4,9.8
					l4.3,9.8c2,4.5,4,8.9,5.9,13.5c3.5,8.5,6.9,17.1,9.9,24.7c1.9,4.9,4.1,10.6,6.2,16.6c1.2,3.5,2.3,7,3.4,10.5
					c1.2,3.9,2.4,7.5,3.5,10.7c2.3,6.2,4.6,12.1,7,17.4c1.6,3.5,3.6,7.5,5.7,11.7c1.5,3,3,6.1,4.5,9.1c1.3,2.7,2.5,5.3,3.7,8
					c1.1,2.4,2.1,4.8,3.3,7.1c2.9,5.6,5.9,11.3,9.2,17.3l2.7,5c2.8,5.1,5.5,10.1,8.2,15.1l1.8,3.2c3,5.4,5.9,10.5,8.7,15
					c7.5,12.1,15,23.9,22.1,34.9c6.8,10.6,12.9,20.1,19.2,29.3c0.5,0.6,2.1,2.6,3.3,4c0.9,1.1,1.8,2.1,2.7,3.2
					c1.7,2,3.5,4.1,5.3,6.1c1.5,1.3,3.4,3.2,5.4,5.4c12.5,13.9,16.6,29.2,18.1,37.4c11.1,0.2,22.2,2.8,32.6,7.9
					c13.3,6.6,24.1,17.8,30.5,31.5c2,4.2,3.6,8.1,5,11.9c6.2,16.6,5.5,35-1.7,50.7c-2.3,4.9-4.6,9-6.4,12
					c-7.6,13.2-19.9,23.5-34.6,28.6c-1.6,0.6-6.2,3.5-8.5,4.8c-2,1.3-4.1,2.5-6.2,3.7c-1.5,0.9-3.6,2.1-4.3,2.6
					c-2.8,2-6.2,4.7-9.8,7.7l-3.2,2.6c-1.6,1.3-3.2,2.7-5.2,4.4c-1.1,1.2-2.4,2.6-4,4.1c-1.7,1.6-3.4,3.2-5.2,4.8
					c-1.8,1.6-3.6,3.3-5.3,5c-0.6,0.6-2.1,2.3-3.3,3.7c-1,1.2-2,2.3-3,3.4l-2.2,2.5c-1.4,1.6-2.8,3.2-4.2,4.8
					c-3.4,3.8-6.1,7.4-8.2,10.8c-2.8,4.6-5.4,9.2-8.1,13.8c-1.9,3.3-3.8,6.6-5.7,9.9c-1.1,1.9-2.2,3.6-3.2,5.1
					c-4.2,12.4-10.3,21.5-13.8,26.9C597.5,760.8,576.2,772.2,553,772.2z M627.1,704.6C627.1,704.6,627.1,704.7,627.1,704.6
					C627.1,704.7,627.1,704.6,627.1,704.6z M477.5,512.9C477.5,512.9,477.5,512.9,477.5,512.9C477.5,512.9,477.5,512.9,477.5,512.9z
					 M445.2,372.4c0,0.1,0.1,0.1,0.1,0.2C445.3,372.5,445.2,372.4,445.2,372.4z"/>
			</g>
			<g>
				<path d="M388.3,408.6c0.6,2.8,1.1,5.7,1.9,8.5c1.4,5.1,3,10.1,4.3,15.1c2.2,7.8,4.3,15.7,6.3,23.5c2.4,9,4.7,17.9,7,26.9
					c0.9,3.5,1.8,7,2.6,10.6c0.7,3.2,1.1,6.4,1.8,9.6c0.7,3.6,1.5,7.3,2.2,10.9c1.1,6,2.2,12,3.3,18c0.9,4.8,2,9.6,2.9,14.5
					c0.8,4.4,1.5,8.7,2.2,13.1c0.9,6,1.9,11.9,2.7,17.9c0.5,3.4,0.8,6.8,1.2,10.2c0.6,5.2,1.3,10.3,1.9,15.5
					c0.2,1.9,0.4,3.9,0.4,5.8c0.2,5.9,0.3,11.9,0.4,17.8c0.1,3.6,0.4,7.3,0.3,10.9c-0.1,4.9-0.5,9.7-0.7,14.6c0,0.5-0.1,1.1,0.1,1.5
					c0.2,0.4,0.7,1,1.1,1c0.4,0.1,1.1-0.3,1.3-0.7c2.8-4.6,5.4-9.3,8.2-13.9c2.5-4,5.1-8,7.9-11.9c5.4-7.5,10.7-15.1,16.5-22.3
					c5.6-7.1,11.7-14,17.6-20.9c4.5-5.2,9.1-10.3,13.5-15.5c1.4-1.6,2.5-3.4,3.6-5.2c1.2-1.9,2.9-2.7,4.9-3c3-0.3,6-0.4,8.9-0.4
					c2.1,0,5.2,3,5.9,5.3c1.3,5,0.7,9.8-2.3,14.1c-0.3,0.5-0.7,1-1.2,1.3c-5.3,3.3-8.6,8.5-12.7,12.9c-1.8,1.9-3.4,3.9-5.1,5.8
					c-3.6,4.2-7.2,8.5-10.7,12.8c-3.6,4.4-7.1,8.8-10.6,13.3c-1.2,1.5-2.3,3.1-3.6,4.6c-1.5,1.7-3.2,3.2-4.6,4.9
					c-1.1,1.2-2.7,2.5-3,4c-1.1,4.9-4.4,8.6-6.8,12.8c-2.6,4.5-5.5,9-8.2,13.4c-0.5,0.8-1,1.5-1.6,2.1c-4.4,4.5-6.1,10.4-8.4,15.9
					c-3.1,7.4-6,15-8.5,22.6c-2.2,6.8-3.7,13.8-5.4,20.7c-0.9,3.9-2.5,7-7.1,7.3c-2.5,0.1-5,0.9-7.5,0.6c-4-0.5-5.5-3.9-7.1-7.1
					c-1.4-2.9-0.2-5.5,0.1-8.3c0.3-2.8,0.8-5.6,1.1-8.4c0.6-5.4,1.1-10.8,1.5-16.2c0.2-2.7,0.3-5.3,0.4-8c0.2-3.9,0.2-7.8,0.4-11.7
					c0.4-9.2,0.8-18.4,1.2-27.7c0.2-7.1,0.3-14.2,0.4-21.3c0-3.6-0.1-7.2-0.4-10.7c-0.7-8.1-1.5-16.2-2.3-24.3
					c-0.4-3.8-0.7-7.7-1.2-11.5c-0.5-4-1.1-7.9-1.7-11.8c-0.8-5.4-1.7-10.8-2.6-16.1c-0.9-5-1.9-9.9-2.9-14.9
					c-1.4-7-2.8-13.9-4.2-20.9c-2-9.4-3.8-18.8-6-28.2c-2.4-10.4-5-20.7-7.8-31.1c-1.9-7-4.2-13.8-6.1-20.8
					c-3.1-11.2-6.1-22.4-9.2-33.7c-1-3.7-2.1-7.4-3.1-11.1c-2.3-8-4.6-16-7.1-23.9c-2.5-7.7-5.2-15.2-7.8-22.8
					c-3.7-10.7-7.6-21.3-11.3-32c-2.7-7.8-5.2-15.6-7.9-23.4c-1.6-4.5-3.5-8.9-5-13.5c-3.4-10.5-8.5-20.3-13-30.4
					c-4.3-9.7-8.3-19.6-12.3-29.4c-2.2-5.4-4.1-11-6.4-16.5c-1.2-2.9-3-5.6-4.5-8.5c-1.8-3.5-0.9-9.9,1.7-12.7
					c2.6-2.8,9.2-3.7,13.1-1.8c4.7,2.3,7.8,6.2,9.9,11c2.7,5.9,5.4,11.8,8,17.7c2.8,6.3,5.4,12.7,8,19.1c2,5,4.1,10.1,5.8,15.2
					c4.3,13.5,9.6,26.7,15.4,39.7c2,4.4,3.8,8.8,5.9,13.2c2.6,5.5,5.2,10.9,7.9,16.3c4.6,9.1,9.4,18.1,14.2,27.1
					c4.8,9,9.8,17.8,14.6,26.9c6.8,12.9,13.8,25.7,19.9,38.9c5.7,12.2,12.7,23.7,19.5,35.3c3.7,6.3,6.8,13,10.3,19.4
					c3.4,6.1,7,12,11.6,17.2c2.7,3.1,2.9,6.8,2.4,10.6c-0.3,2.2-0.8,4.3-2.6,6c-2.5,2.4-5.6,2.1-8.6,1.8c-1.7-0.1-3.3-1-4.9-1.4
					c-2.2-0.6-3.7-2-4.9-3.8c-1.6-2.6-3.4-5.1-4.9-7.7c-1.7-2.8-3.2-5.8-4.8-8.7c-1.4-2.5-2.7-5.1-4.1-7.6
					c-5.3-9.6-10.4-19.3-16.1-28.7c-3.8-6.2-6.8-12.7-10.2-19.1c-1-1.8-2-3.6-3.1-5.3c-0.3-0.5-0.7-0.8-1.1-1.2
					C388.9,408.4,388.6,408.5,388.3,408.6z"/>
				<path d="M412.2,797.2c-2.5,0-5.2-0.1-8.1-0.4c-14.2-1.6-40.2-9.1-55.8-41.2l-0.2-0.3c-6.7-13.8-8.6-28.8-5.5-44.8
					c0.1-0.8,0.2-1.7,0.3-2.5c0.1-1,0.3-2.1,0.4-3.1c0.5-5.1,1-10.1,1.4-15.1c0.1-1.5,0.2-3,0.2-4.5l0-0.6c0.1-1.8,0.1-3.5,0.2-5.3
					c0.1-2.2,0.1-4.4,0.2-6.6c0.1-3.4,0.3-6.8,0.4-10.2c0.3-5.7,0.5-11.3,0.7-17c0.2-5.9,0.3-12.3,0.3-19.6c0-1.9,0-3.7-0.2-5.2
					c-0.5-6.1-1.1-12.2-1.7-18.2l-0.6-6.3c-0.3-3-0.6-5.9-0.9-8.9c-0.4-3.3-0.9-6.6-1.4-9.9c-0.8-4.9-1.6-9.9-2.4-14.9
					c-0.7-4.1-1.5-8.2-2.4-12.3l-0.6-3.1c-1.2-6.2-2.4-12.3-3.7-18.5l-1.2-5.9c-1.5-7.3-2.9-14.1-4.5-20.8
					c-2.2-9.2-4.6-18.8-7.3-29.2c-0.8-3.1-1.8-6.2-2.7-9.3c-1.1-3.6-2.2-7.2-3.2-10.8c-2-7.3-4-14.7-6-22l-3.2-11.9
					c-0.9-3.3-1.8-6.6-2.8-9.9l-1.8-6c-1.7-5.8-3.3-11.2-4.9-16.4c-1.7-5.4-3.7-10.9-5.8-16.8l-1.5-4.4c-1.7-4.7-3.3-9.4-5-14.1
					c-2.1-6-4.2-12-6.3-18c-1.4-4.1-2.8-8.2-4.2-12.3c-1.2-3.7-2.5-7.4-3.8-11.1c-0.4-1.3-1-2.6-1.5-3.9c-1.1-3-2.6-6.7-3.9-10.9
					c-1.3-4.1-3.9-9.6-6.6-15.4c-1.3-2.9-2.7-5.7-4-8.6c-4.1-9-7.6-17.9-11.1-26.4l-2-5.1c-1.2-3.1-2.4-6.1-3.6-9.2
					c-0.6-1.7-1.3-3.4-1.9-5.1l-0.1-0.1c-1.1-1.9-2.1-3.7-3.1-5.6c-13.6-26.7-8.6-61.8,11.9-83.5c21.4-22.7,57.6-28.9,86-14.8
					c11.9,5.9,28.3,17.8,38.8,40.9l2.6,5.6c2,4.3,4,8.6,5.9,13c2.7,6.3,5.5,13,8.6,20.7l0.8,2c2.1,5.1,4.4,10.8,6.5,17.5
					c3.4,10.6,7.6,21.4,12.9,33.3c0.8,1.8,1.5,3.5,2.3,5.2c1,2.3,2,4.7,3.1,7c2,4.4,4.4,9.4,7,14.3c4.9,9.5,9.3,18.1,13.7,26.2
					c2,3.8,4.1,7.6,6.2,11.3c2.9,5.3,5.8,10.6,8.6,15.9l3.9,7.5c5.7,10.8,11.7,22,17.2,34c3.9,8.4,9.3,17.4,14.9,26.9l1.8,3.1
					c3.1,5.2,5.6,10.1,7.8,14.4c1.1,2.2,2.2,4.3,3.4,6.5c2.5,4.5,3.7,6.1,4.2,6.7c8.2,9.4,21.3,29.8,16.9,60.1c-0.3,2-0.6,3.9-1,5.7
					c29.4,1,56.1,22.4,63.7,51.5c6.1,23,2,46.2-11.4,65.5c-4,5.7-8.7,10.7-14,14.8c-1.5,1.8-3.5,4.2-6,6.7c-0.7,0.8-1.5,1.7-2.2,2.6
					l-0.6,0.8c-3.3,3.9-6.6,7.8-9.8,11.7c-2.7,3.3-5.4,6.7-8.1,10l-2.4,3c-1.1,1.4-2.8,3.8-5.2,6.4c-0.3,0.3-0.5,0.6-0.8,0.9
					c-2.3,4.6-4.7,8.1-6.2,10.4l-0.5,0.8c-2.5,4.3-4.9,8.2-7.1,11.7l-1.9,3.1c-1.4,2.2-2.8,4.2-4.3,6.2c-0.4,1-0.8,2-1.2,2.9
					c-3,7.1-5.1,12.8-6.7,17.8c-1.1,3.3-2.1,7.7-3.2,12.3l-1,4c-7.5,30.6-31.6,51.8-61.7,54.5C421.7,796.7,417.5,797.2,412.2,797.2z
					 M422.3,796.5C422.2,796.5,422.2,796.5,422.3,796.5C422.2,796.5,422.2,796.5,422.3,796.5z M342.4,712.1c0,0.1,0,0.2,0,0.2
					C342.4,712.3,342.4,712.2,342.4,712.1z M548.1,634c-0.1,0.1-0.2,0.2-0.4,0.2C547.9,634.2,548,634.1,548.1,634z M254.5,213.2
					c0,0,0,0.1,0.1,0.1L254.5,213.2z"/>
			</g>
		</g>
	</g>
	<g>
		<g>
			<g>
				<path d="M68.5,885.2h80.1v6.1c0,10.1,3.1,17.7,9.2,22.7c6.1,5.1,14.6,7.6,25.4,7.6c10.7,0,19-2,24.8-5.9
					c5.8-3.9,8.7-9.3,8.7-16.1c0-9-2.7-15.5-7.9-19.6c-5.3-4.1-20.2-8.8-44.6-14.2c-27.1-6-49.3-16-66.6-29.8s-26-32.3-26.2-55.5
					c0-26.6,10.1-47.1,30.4-61.6c20.3-14.4,46.9-21.6,80-21.6c32.8,0,59.3,7.4,79.4,22.1c20.2,14.7,30.2,35.2,30.2,61.3v7h-78v-5.7
					c0-8.6-2.6-15.6-7.9-20.8c-5.2-5.2-13-7.9-23.4-7.9c-10.4,0-18,1.8-22.8,5.3c-4.9,3.5-7.3,8.3-7.3,14.3c0,6.9,2.8,11.7,8.4,14.4
					c5.6,2.7,20.2,7,43.7,12.9c26.7,6.8,48.9,17,66.4,30.6c17.5,13.6,26.3,33.7,26.4,60.4c0,29-10.5,50.5-31.5,64.7
					c-21,14.2-48.3,21.3-82,21.3c-33.2,0-60.6-6.9-82.3-20.7c-21.7-13.8-32.5-35.1-32.5-64V885.2z"/>
				<path d="M183.3,1037.6c-44.7,0-83.2-10.1-114.6-30.1c-39-24.8-60.5-65.6-60.5-114.9v-67.7h10c-4.7-13.7-7.1-28.4-7.2-44
					c0-46.1,19.8-85.5,55.8-111c30.6-21.8,69.2-32.8,114.9-32.8c45.7,0,84.4,11.3,115,33.7c36,26.3,55,64.3,55,110v67.3h-0.4
					c3.6,12.5,5.8,26.7,5.9,42.9c0,49-20.6,89.7-58.1,115C268,1027,229.1,1037.6,183.3,1037.6z"/>
			</g>
			<g>
				<path d="M405.2,830.2v-53.8h-30.7v-43.8h-74.7v43.8h-23.7v53.8h23.3v73.8c0,25.3,6.9,43.8,20.8,55.6
					c13.9,11.8,32.1,17.7,54.6,17.7c6,0,11.7-0.6,17-1.8c5.3-1.2,9.2-2.5,11.6-4v-50.7c-1.8,0.9-3.9,1.6-6.3,2.3
					c-2.3,0.7-4.6,1-6.8,1c-4.3,0-8-1.5-11.2-4.5c-3.1-3-4.7-9-4.7-18v-71.5H405.2z"/>
				<path d="M374.9,1037.6c-37.2,0-68.8-10.8-93.8-32.2c-19.1-16.3-42-47.2-42-101.5v-13.5h-23.3V716h23.7v-43.8h195.3V716h30.7
					v174.4h-1.7v115.3l-29.3,17.6c-8.3,5-17.7,8.5-29.6,11.1C395.4,1036.6,385.3,1037.6,374.9,1037.6z"/>
			</g>
			<g>
				<path d="M402.3,776.4h73.6l0.9,17.6h0.9c2.7-6.3,7-11.6,12.8-16.1c5.8-4.4,11.7-6.7,17.7-6.7c2.3,0,4.7,0.3,6.9,0.9
					c2.3,0.6,3.9,1.2,4.9,1.7V837c-1.8-0.6-3.9-1.1-6-1.4c-2.2-0.3-4.5-0.5-7.1-0.5c-5.8,0-11.5,2.1-17,6.3
					c-5.5,4.2-9.5,9.6-11.8,16.3V972h-75.8V776.4z"/>
				<path d="M538.4,1032.3H342V716h137c16.6-6,34.7-6.8,51.8-2.2c6.4,1.7,11.5,3.6,16.2,6l33.3,16.7v184.1l-42-14V1032.3z"/>
			</g>
			<g>
				<path d="M904.9,867.9c0-30.9-9.1-54.9-27.2-71.8c-18.1-16.9-42.3-25.4-72.7-25.4c-29.9,0-55,9-75.2,27
					c-10.9,9.7-18.9,21.4-23.9,34.9c-4.4-14.5-11.9-26.7-22.3-36.5c-18.1-16.9-42.3-25.4-72.7-25.4c-29.9,0-55,9-75.2,27
					c-20.2,18-30.3,42.5-30.3,73.4v5.9c0,31.1,10,55.6,29.9,73.7c19.9,18.1,46.3,27.1,79.2,27.1c21.3,0,40.2-3.7,56.8-11.2
					c16.5-7.5,27.9-18.3,34-32.6l-54.9-33.3c-3.9,6-9.1,11.5-15.5,16.5c-6.4,4.9-13.9,7.4-22.4,7.4c-10.1,0-18.1-3.3-24-9.9
					c-4.4-4.9-7.1-12-8.3-21.4h120.4c3,23.5,12.6,42.6,28.9,57.4c19.9,18.1,46.3,27.1,79.2,27.1c21.3,0,40.2-3.7,56.8-11.2
					c16.5-7.5,27.9-18.3,34-32.6l-54.9-33.3c-3.9,6-9.1,11.5-15.5,16.5c-6.4,4.9-13.9,7.4-22.4,7.4c-10.1,0-18.1-3.3-24-9.9
					c-4.4-4.9-7.1-12-8.3-21.4h130.7V867.9z M636.6,852.2h-56.4c1.1-8.9,3.5-15.7,7.2-20.3c5.3-6.7,12.6-10,21.8-10
					c8.6,0,15.4,2.5,20.2,7.5c4.9,5,7.2,11.2,7.1,18.8V852.2z M830.8,852.2h-56.4c1.1-8.9,3.5-15.7,7.2-20.3
					c5.3-6.7,12.6-10,21.8-10c8.6,0,15.4,2.5,20.2,7.5c4.9,5,7.2,11.2,7.1,18.8V852.2z"/>
				<path d="M808.6,1038c-36.9,0-69.2-8.4-96.4-25.1c-3.6,2.2-7.3,4.3-11.1,6.2l-0.8,2.2l-0.5-1.6c-1.3,0.6-2.5,1.2-3.8,1.8
					c-24.3,11-51.7,16.5-81.6,16.5c-48.2,0-88.5-14.4-119.7-42.7c-32.5-29.5-49.6-70.4-49.6-118.3V871c0-48.1,17.5-89,50.5-118.4
					c31.5-28,70.3-42.3,115.3-42.3c37.7,0,70.3,9.4,97.1,28.1c27.8-18.7,60.4-28.1,97.1-28.1c46,0,84.3,14,113.8,41.7
					c21.1,19.8,46.3,55.9,46.3,115.9v35.4l10.3,6.3l-10.3,24v20h-8.6l-1.8,4.3c-12.1,28.1-34.4,50.1-64.6,63.7
					C865.9,1032.4,838.4,1038,808.6,1038z"/>
			</g>
			<g>
				<path d="M1011.5,830.2v-53.8h-30.7v-43.8h-74.7v43.8h-23.7v53.8h23.3v73.8c0,25.3,6.9,43.8,20.8,55.6
					c13.9,11.8,32.1,17.7,54.6,17.7c6,0,11.7-0.6,17-1.8c5.3-1.2,9.2-2.5,11.6-4v-50.7c-1.8,0.9-3.9,1.6-6.3,2.3
					c-2.3,0.7-4.6,1-6.8,1c-4.3,0-8-1.5-11.2-4.5c-3.1-3-4.7-9-4.7-18v-71.5H1011.5z"/>
				<path d="M981.1,1037.6c-37.2,0-68.7-10.8-93.8-32.2c-19.2-16.3-42-47.2-42-101.5v-13.5h-23.3V716h23.7v-43.8h195.3V716h30.7
					v174.4h-1.7v115.3l-29.3,17.6c-8.3,5-17.7,8.5-29.6,11.1C1001.6,1036.6,991.5,1037.6,981.1,1037.6z"/>
			</g>
		</g>
		<g>
			<g>
				<path class="st0" d="M68.5,885.2h80.1v6.1c0,10.1,3.1,17.7,9.2,22.7c6.1,5.1,14.6,7.6,25.4,7.6c10.7,0,19-2,24.8-5.9
					c5.8-3.9,8.7-9.3,8.7-16.1c0-9-2.7-15.5-7.9-19.6c-5.3-4.1-20.2-8.8-44.6-14.2c-27.1-6-49.3-16-66.6-29.8s-26-32.3-26.2-55.5
					c0-26.6,10.1-47.1,30.4-61.6c20.3-14.4,46.9-21.6,80-21.6c32.8,0,59.3,7.4,79.4,22.1c20.2,14.7,30.2,35.2,30.2,61.3v7h-78v-5.7
					c0-8.6-2.6-15.6-7.9-20.8c-5.2-5.2-13-7.9-23.4-7.9c-10.4,0-18,1.8-22.8,5.3c-4.9,3.5-7.3,8.3-7.3,14.3c0,6.9,2.8,11.7,8.4,14.4
					c5.6,2.7,20.2,7,43.7,12.9c26.7,6.8,48.9,17,66.4,30.6c17.5,13.6,26.3,33.7,26.4,60.4c0,29-10.5,50.5-31.5,64.7
					c-21,14.2-48.3,21.3-82,21.3c-33.2,0-60.6-6.9-82.3-20.7c-21.7-13.8-32.5-35.1-32.5-64V885.2z"/>
			</g>
			<g>
				<path class="st0" d="M405.2,830.2v-53.8h-30.7v-43.8h-74.7v43.8h-23.7v53.8h23.3v73.8c0,25.3,6.9,43.8,20.8,55.6
					c13.9,11.8,32.1,17.7,54.6,17.7c6,0,11.7-0.6,17-1.8c5.3-1.2,9.2-2.5,11.6-4v-50.7c-1.8,0.9-3.9,1.6-6.3,2.3
					c-2.3,0.7-4.6,1-6.8,1c-4.3,0-8-1.5-11.2-4.5c-3.1-3-4.7-9-4.7-18v-71.5H405.2z"/>
			</g>
			<g>
				<path class="st0" d="M402.3,776.4h73.6l0.9,17.6h0.9c2.7-6.3,7-11.6,12.8-16.1c5.8-4.4,11.7-6.7,17.7-6.7c2.3,0,4.7,0.3,6.9,0.9
					c2.3,0.6,3.9,1.2,4.9,1.7V837c-1.8-0.6-3.9-1.1-6-1.4c-2.2-0.3-4.5-0.5-7.1-0.5c-5.8,0-11.5,2.1-17,6.3
					c-5.5,4.2-9.5,9.6-11.8,16.3V972h-75.8V776.4z"/>
			</g>
			<g>
				<path class="st1" d="M904.9,867.9c0-30.9-9.1-54.9-27.2-71.8c-18.1-16.9-42.3-25.4-72.7-25.4c-29.9,0-55,9-75.2,27
					c-10.9,9.7-18.9,21.4-23.9,34.9c-4.4-14.5-11.9-26.7-22.3-36.5c-18.1-16.9-42.3-25.4-72.7-25.4c-29.9,0-55,9-75.2,27
					c-20.2,18-30.3,42.5-30.3,73.4v5.9c0,31.1,10,55.6,29.9,73.7c19.9,18.1,46.3,27.1,79.2,27.1c21.3,0,40.2-3.7,56.8-11.2
					c16.5-7.5,27.9-18.3,34-32.6l-54.9-33.3c-3.9,6-9.1,11.5-15.5,16.5c-6.4,4.9-13.9,7.4-22.4,7.4c-10.1,0-18.1-3.3-24-9.9
					c-4.4-4.9-7.1-12-8.3-21.4h120.4c3,23.5,12.6,42.6,28.9,57.4c19.9,18.1,46.3,27.1,79.2,27.1c21.3,0,40.2-3.7,56.8-11.2
					c16.5-7.5,27.9-18.3,34-32.6l-54.9-33.3c-3.9,6-9.1,11.5-15.5,16.5c-6.4,4.9-13.9,7.4-22.4,7.4c-10.1,0-18.1-3.3-24-9.9
					c-4.4-4.9-7.1-12-8.3-21.4h130.7V867.9z M636.6,852.2h-56.4c1.1-8.9,3.5-15.7,7.2-20.3c5.3-6.7,12.6-10,21.8-10
					c8.6,0,15.4,2.5,20.2,7.5c4.9,5,7.2,11.2,7.1,18.8V852.2z M830.8,852.2h-56.4c1.1-8.9,3.5-15.7,7.2-20.3
					c5.3-6.7,12.6-10,21.8-10c8.6,0,15.4,2.5,20.2,7.5c4.9,5,7.2,11.2,7.1,18.8V852.2z"/>
			</g>
			<g>
				<path class="st0" d="M1011.5,830.2v-53.8h-30.7v-43.8h-74.7v43.8h-23.7v53.8h23.3v73.8c0,25.3,6.9,43.8,20.8,55.6
					c13.9,11.8,32.1,17.7,54.6,17.7c6,0,11.7-0.6,17-1.8c5.3-1.2,9.2-2.5,11.6-4v-50.7c-1.8,0.9-3.9,1.6-6.3,2.3
					c-2.3,0.7-4.6,1-6.8,1c-4.3,0-8-1.5-11.2-4.5c-3.1-3-4.7-9-4.7-18v-71.5H1011.5z"/>
			</g>
		</g>
	</g>
	<g>
		<g>
			<path class="st0" d="M870.7,478.4c-0.9-0.2-1.9-0.7-2.8-0.5c-7.4,1.6-14.8,3.4-22.2,5.1c-5.5,1.2-11,2.3-16.5,3.5
				c-5.8,1.2-11.5,2.5-17.3,3.6c-4.9,0.9-9.8,1.7-14.8,2.2c-3.2,0.3-6.1,1.8-9.2,2.5c-6.3,1.3-12.6,2.3-18.9,3.5
				c-3.5,0.6-6.9,1.4-10.4,2c-5.6,1-11.1,1.8-16.7,2.8c-2.8,0.5-5.5,1.3-8.2,1.9c-4.4,1-8.8,1.8-13.1,2.8c-8.5,1.8-17,3.7-25.5,5.5
				c-6,1.2-11.9,2.9-17.9,3.4c-6.3,0.5-12.8,0.1-19.2-0.3c-4.3-0.3-8.4-5.5-9.3-10.2c-0.9-4.6-0.1-9.1,0.9-13.6
				c1.6-6.7,3.1-13.5,4.5-20.2c1.2-5.8,2.2-11.7,3.1-17.6c0.6-3.6,0.8-7.3,1.3-10.9c0.5-3.6,1.1-7.2,1.7-10.9c0.5-3.5,1-7,1.5-10.5
				c0.6-5,1.1-10,1.6-15c0.2-2.3,0.4-4.7,0.4-7c0.1-5.2,0-10.3,0-15.5c0-3.7,0.5-7.4,0.3-11.1c-0.2-7.1-0.7-14.1-1.2-21.2
				c-0.4-5.3-0.9-10.7-1.6-16c-0.9-7.4-2.1-14.8-3.1-22.1c-0.5-4-0.6-8-1.3-11.9c-0.9-5.2-1.9-10.5-3.4-15.6
				c-2.3-7.8-5.2-15.4-7.7-23.1c-2.1-6.5-4.1-13-6.2-19.6c-1.1-3.5-2.4-6.9-3.5-10.4c-1.7-5.4-3.5-10.8-5.1-16.2
				c-2.9-9.5-5.8-19.1-8.5-28.7c-2.4-8.6-4.5-17.3-6.7-26c-2.2-8.7-4.3-17.5-6.7-26.2c-1.8-6.7-3.9-13.2-5.7-19.9
				c-0.4-1.3,0-3,0.4-4.4c1-3.5,3.4-6.1,6.3-8c1-0.6,2.7-0.4,4-0.3c4.5,0.6,8,2.8,10,6.9c0.9,1.8,1.3,3.8,1.9,5.8
				c2,6.8,4,13.6,6,20.4c3.3,11.2,6.7,22.4,10,33.6c2,6.8,3.9,13.6,5.9,20.4c2.8,9.7,5.7,19.4,8.5,29.1c2,6.8,3.9,13.6,5.8,20.4
				c2,7.1,3.7,14.2,5.8,21.2c2.7,9.1,5.5,18.2,8.5,27.2c1.6,4.8,3.8,9.5,5.7,14.2c2.8,7.1,5.5,14.2,8.3,21.2c1.6,4,3.5,8,5.3,12
				c3.7,8.2,7.3,16.5,11.2,24.7c4.8,10.1,10.7,19.6,16.6,29.1c3.4,5.5,6.7,11.1,9.7,16.8c5.7,11,11.9,21.7,19.6,31.5
				c4.6,5.9,9.8,11.2,15,16.6c1.9,2,4.5,3.5,5.2,6.5c0.9,4,1.6,8-2,11.3c-2.9,2.6-7.4,3.5-10.7,1.5c-2.5-1.5-5-3.3-7-5.4
				c-5.6-6-11.1-12.1-16.4-18.3c-8.6-10.2-15.2-21.7-21.5-33.5c-4.5-8.5-9.7-16.6-14.5-24.9c-3.3-5.7-6.5-11.5-9.7-17.3
				c-2.2-4-4.2-8.1-6.4-12.1c-0.2-0.3-0.9-0.6-1.4-0.5c-0.4,0.1-0.9,0.6-0.9,1c-0.1,2.8-0.1,5.7-0.1,8.5c0,0.5,0,1,0,1.6
				c0.1,3.8,0.4,7.7,0.3,11.5c0,3.2-0.5,6.3-0.7,9.5c-0.1,1.3,0,2.6,0,3.9c0,1.6,0,3.3-0.1,4.9c0,0.9-0.3,1.8-0.3,2.7
				c-0.5,6.2-1,12.4-1.6,18.5c-0.1,1.7-0.1,3.4-0.5,5c-0.3,1.5-0.8,2.9-1.4,4.3c-0.8,2.1-0.9,4.2-0.8,6.4c0.1,3-0.4,6.1-1,9.1
				c-0.3,1.6-0.9,3.1-0.4,4.9c0.9,3.2-0.4,6.3-0.9,9.4c-0.3,1.8-1.5,3.5-0.6,5.4c0.1,0.3-0.2,0.7-0.3,1.1c0,1.7,0,3.4,0,5.1
				c0,0.8,0.2,1.9-0.3,2.5c-3.5,4.6-4.3,9.9-4.6,15.4c-0.1,1.4,0.9,2.5,2.5,2.4c3.5-0.3,7.1-0.7,10.5-1.3c8.4-1.6,16.7-3.3,25.1-4.9
				c7.1-1.4,14.2-2.9,21.3-4.2c9.9-1.9,19.9-3.7,29.8-5.6c5.8-1.1,11.5-2.4,17.3-3.4c7-1.3,14-2.3,21-3.6c5.3-1,10.6-2.2,16-3.3
				c4.6-0.9,9.2-1.7,13.8-2.6c3.6-0.7,7.3-1.5,10.9-2.4c6.7-1.5,13.5-3.1,20.2-4.7c4.9-1.2,9.8-2.4,14.7-3.6
				c5.4-1.4,10.8-3.2,16.3-4.3c12.7-2.6,25-6.8,37.5-10.2c4.2-1.1,8.2-2.9,12.3-4.3c2.8-1,5.6-2.4,8.5-2.9c7.2-1.2,12.6,0.4,14,9
				c0.9,5.9-1.7,10.6-6.6,12.3c-3.9,1.4-7.7,3.1-11.4,4.9c-6.2,3.1-12.4,6.5-18.5,9.8c-5.1,2.7-10.3,5.2-15.3,8.1
				c-3.5,2-6.8,4.5-10.3,6.6c-1.6,1-3.6,1.3-5.2,2.3c-3.6,2.1-7,4.4-10.6,6.5c-2.4,1.4-5,2.2-7.4,3.7c-6.4,4-13,7.8-19,12.4
				c-3.5,2.7-6.7,5.8-10.9,7.6c-1.6,0.7-3.1,1.6-4.5,2.7c-7.6,5.6-15.2,11.2-22.7,16.9c-3.6,2.6-7.2,5.2-10.7,7.9
				c-3,2.3-5.8,4.7-8.6,7.2c-4.4,3.9-8.8,7.9-13.1,11.9c-2,1.9-3.6,4.2-5.5,6.2c-1.7,1.8-3.7,3.4-5.5,5.1c-3,3-5.9,6-8.7,9.2
				c-1.2,1.3-2.2,2.9-2.9,4.5c-1,2.2-2.7,3.6-4.6,5c-3.7,2.7-5.5,6.5-7,10.7c-0.4,1-1.1,2.5-2,2.7c-3,0.9-4.3,3.5-5.8,5.7
				c-4.7,7.4-9.2,15-13.7,22.6c-1.6,2.7-3.2,5.5-4.7,8.3c-0.9,1.7-1.4,3.7-2.4,5.4c-3.7,6.4-7.2,12.8-9.2,20
				c-0.8,2.9-2.5,5.5-3.4,8.3c-1.2,3.5-2.1,7.2-3.2,10.8c-0.7,2.1-1.5,4.2-2.4,6.2c-1.7,4.3-2.8,8.5-1.5,13.2c0.5,1.8-0.2,4-0.5,6
				c-1.1,6.3-2.4,12.6-3.4,18.9c-0.6,3.7-0.6,7.5-0.8,11.2c-0.1,1.9,0.2,3.9-0.1,5.7c-0.3,1.8-1.2,3.5-2,5.2c-1.1,2.3-3,3-5.8,2.5
				c-1.5-0.3-3.1-0.1-4.6-0.4c-6.5-1.6-9.1-6.1-8.1-12.9c0.4-2.9-0.1-6-0.3-8.9c-0.2-3-0.6-6-0.7-9.1c-0.4-7.9-0.5-15.8-1.3-23.7
				c-1-10.4-2.9-20.7-5.6-30.8c-1.7-6.5-4-12.7-6.8-18.7c-0.9-2-0.9-4.5-1.3-6.8c-0.7-4.3,3.2-8.8,7.6-8.9c0.9,0,1.7,0,2.6,0
				c5.1,0,9.1,3,11.1,7.8c3.9,9.3,6.4,19,8.6,28.8c0.1,0.6,0.9,1.5,1.2,1.5c0.7-0.2,1.6-0.7,1.8-1.3c1.6-4,2.9-8.1,4.5-12
				c2.3-5.8,4.4-11.6,7.3-17.1c4.7-9,9.7-17.7,14.9-26.4c4.3-7.1,8.8-14.2,13.5-21c3.9-5.6,8.2-11.1,12.5-16.4
				c4-4.9,8.3-9.5,12.5-14.1c3.5-3.9,7-7.7,10.6-11.4c5.2-5.2,10.4-10.4,15.8-15.4c4.7-4.3,9.8-8.2,14.6-12.4
				c10.1-8.7,21.1-16.2,32-23.8c5.6-3.9,11.5-7.4,17.2-11.3c3.8-2.5,7.4-5.3,11.1-8c2.3-1.6,4.7-3.1,7.1-4.6c0.5-0.3,0.9-0.7,1.4-1
				C870.7,479,870.7,478.7,870.7,478.4z"/>
		</g>
		<g>
			<path class="st0" d="M537.5,393.7c-0.2,0.8-0.8,1.7-0.6,2.3c1.1,3.1,1.7,6.1,2,9.4c0.3,3.4,2.1,6.6,2.8,9.9
				c1.1,5.7,1.7,11.4,2.7,17.1c0.3,1.8,0.8,3.5,1.2,5.2c1.3,5.9,2.7,11.8,3.9,17.8c0.8,4.2,1.3,8.5,2,12.7c0,0.1,0,0.1,0,0.2
				c2.4,3.4,1.5,7.5,2.6,11.1c0.6,2.1,1.1,4.1,0.7,6.4c-0.5,2.2-0.2,4.4,0.9,6.6c2.1,3.8,2.6,7.9,1.8,12.2c-0.2,0.9,0,1.8,0.2,2.7
				c1,5.3,3.2,10.5,2.5,16.1c0,0.4,0.1,0.8,0.2,1.1c1.8,4.9,2.5,10,2.5,15.1c0,0.7,0.2,1.4,0.4,2.1c1,4.1,0.6,8.1-0.3,12.2
				c-0.2,1,0.7,2.2,1,3.4c0.4,1.3,1,2.6,1.2,4c0.4,2.4,0.3,5,0.9,7.3c1,3.4,0.7,6.6-0.7,9.8c-1,2.4-1,4.8,0.9,6.9
				c2.1,2.3,1.8,5.2,2,7.8c0.4,6.2,0.4,12.5,0.4,18.8c0,2-0.5,4.1-0.7,6.1c-0.1,0.8-0.2,1.6,0,2.3c1.4,5.9,0.5,11.8,0.8,17.7
				c0,0.5-0.1,1.1,0,1.6c0.2,0.6,0.6,1.2,1.2,1.6c0.2,0.1,1.1-0.4,1.4-0.8c2.3-3.3,4.5-6.7,7-9.9c2.2-2.9,4.6-5.5,7-8.3
				c5.6-6.5,11.1-13.1,16.9-19.5c1.9-2.2,4.4-3.8,6.5-5.8c3.7-3.6,7.2-7.4,10.9-10.8c3.5-3.2,7.3-6.1,11-9.2
				c3.2-2.6,6.3-5.3,9.6-7.9c2.8-2.2,5.7-4.2,8.6-6.2c8.3-5.5,16.6-10.9,24.9-16.3c2.5-1.6,4.9-3.4,7.5-4.7
				c4.1-2.1,8.5-2.3,12.7-0.2c0.7,0.3,1.3,1.1,1.6,1.9c1.2,2.5,2.3,5,3.2,7.6c0.3,0.8,0.4,2,0.1,2.7c-1.1,2.4-2.5,4.8-3.8,7.1
				c-0.3,0.5-0.8,0.9-1.3,1c-7.3,2.5-13.8,6.5-20.3,10.4c-4.6,2.8-9.5,5.3-14,8.5c-5.6,3.9-10.8,8.3-16.1,12.6
				c-3.4,2.7-6.8,5.6-10.1,8.5c-1.1,1-1.9,2.3-3,3.3c-3.9,3.7-8,7.3-11.8,11.1c-3.1,3.1-5.9,6.5-8.8,9.8c-2,2.3-4,4.6-6,6.9
				c-5.6,6.2-10.7,12.9-15.1,20c-4.9,8.1-9.5,16.4-14.3,24.6c-1.2,2.1-2.7,4.1-4.1,6.1c-1.6,2.4-2.9,4.7-3.6,7.7
				c-1.2,5.6-4.3,10.5-7.5,15.2c-1.6,2.4-3.6,3.6-6.5,3.4c-1.9-0.1-4,0.2-5.8-0.3c-4.8-1.3-7-5.4-5.8-10.5
				c1.5-6.7,3.2-13.4,4.5-20.2c1-5,1.4-10.1,2.1-15.1c0.7-5.4,1.3-10.7,1.9-16.1c0.3-2.3,0.4-4.7,0.4-7c0.2-5.3,0.3-10.7,0.4-16
				c0.1-6.1,0.1-12.2,0-18.3c-0.2-7.2-0.3-14.4-0.8-21.6c-0.4-5.3-1.5-10.5-2.2-15.8c-0.1-0.5-0.1-1-0.1-1.6
				c0.4-4.5-0.6-8.9-1.6-13.2c-0.2-0.8-0.3-1.6-0.4-2.5c-0.5-4.9-1-9.7-1.5-14.6c-0.3-2.8-0.5-5.7-0.8-8.5
				c-0.5-4.1-1.1-8.2-1.7-12.2c-0.7-4.8-1.4-9.6-2.3-14.4c-0.5-2.9-1.4-5.7-1.9-8.6c-0.8-4.2-1.3-8.4-2-12.5
				c-1.2-7-2.3-13.9-3.6-20.8c-0.8-4.2-1.7-8.4-2.6-12.6c-1.6-8.1-3.2-16.2-4.9-24.3c-1.6-7.5-3.3-15-5.1-22.5
				c-2-8.4-4-16.8-6.3-25.1c-1.9-6.9-4.3-13.6-6.7-20.4c-1-2.9-2.6-5.6-3.8-8.4c-0.5-1.1-1.2-2.3-1.2-3.4c0.2-4-1.2-7.6-2.3-11.3
				c-2-6.9-4.2-13.8-6.5-20.7c-2.4-7.5-4.8-14.9-7.5-22.3c-1.6-4.5-3.7-8.8-5.6-13.3c-3.1-7.2-6.2-14.5-9.3-21.7
				c-3.9-9.2-7.7-18.4-11.5-27.7c-3.3-8-6.5-16-9.9-24c-3.7-8.6-7.5-17.1-11.3-25.7c-2-4.7-3.9-9.5-5.9-14.2c-1.3-3-2.9-5.9-4.2-8.8
				c-2.9-6.1-5.6-12.2-8.6-18.3c-1.4-2.9,0.8-8.2,2.9-9.5c3.1-1.9,6.3-3.7,10.2-3.5c3,0.1,5.1,1.4,6.4,3.9c2.3,4.2,4.4,8.6,6.9,12.7
				c5.7,9.4,9.9,19.5,14,29.6c1.4,3.6,3.4,6.9,5,10.4c2.1,4.5,4,9.1,6.1,13.7c2.6,5.8,5.2,11.5,7.7,17.3c3.2,7.8,6.3,15.6,9.4,23.5
				c1.8,4.6,3.6,9.2,5.1,13.8c2.5,7.4,4.7,15,7.3,22.4c2.6,7.3,5.5,14.6,8.7,21.7c3.4,7.6,7.3,14.9,10.9,22.4
				c2.6,5.4,4.9,11,7.7,16.4c4,7.9,8.3,15.7,12.5,23.5c2.9,5.4,5.8,10.8,8.9,16.2c3.8,6.8,7.6,13.7,11.7,20.3
				c7.4,12,15,23.9,22.6,35.7c6.6,10.3,13.2,20.6,20.1,30.7c2.9,4.3,6.5,8.2,9.8,12.2c2.7,3.3,5.6,6.5,8.5,9.6
				c1.1,1.2,2.5,2.2,3.6,3.5c2.4,2.6,3,6,3.6,9.4c0.8,4.9-1.2,7.2-6,8.9c-5.7,2-9.4-0.9-13-4.4c-2.6-2.6-4.8-5.8-7.4-8.5
				c-7.1-7.4-13.8-15.2-19.3-23.9c-4.3-6.9-8.5-13.7-12.9-20.5c-2.9-4.5-6.1-8.9-9-13.4c-2.9-4.4-5.8-8.8-8.5-13.3
				c-3.3-5.4-6.4-10.8-9.6-16.2c-1.3-2.2-2.6-4.4-3.8-6.6C538.1,393.7,537.8,393.7,537.5,393.7z"/>
		</g>
		<g>
			<path class="st0" d="M388.3,408.6c0.6,2.8,1.1,5.7,1.9,8.5c1.4,5.1,3,10.1,4.3,15.1c2.2,7.8,4.3,15.7,6.3,23.5
				c2.4,9,4.7,17.9,7,26.9c0.9,3.5,1.8,7,2.6,10.6c0.7,3.2,1.1,6.4,1.8,9.6c0.7,3.6,1.5,7.3,2.2,10.9c1.1,6,2.2,12,3.3,18
				c0.9,4.8,2,9.6,2.9,14.5c0.8,4.4,1.5,8.7,2.2,13.1c0.9,6,1.9,11.9,2.7,17.9c0.5,3.4,0.8,6.8,1.2,10.2c0.6,5.2,1.3,10.3,1.9,15.5
				c0.2,1.9,0.4,3.9,0.4,5.8c0.2,5.9,0.3,11.9,0.4,17.8c0.1,3.6,0.4,7.3,0.3,10.9c-0.1,4.9-0.5,9.7-0.7,14.6c0,0.5-0.1,1.1,0.1,1.5
				c0.2,0.4,0.7,1,1.1,1c0.4,0.1,1.1-0.3,1.3-0.7c2.8-4.6,5.4-9.3,8.2-13.9c2.5-4,5.1-8,7.9-11.9c5.4-7.5,10.7-15.1,16.5-22.3
				c5.6-7.1,11.7-14,17.6-20.9c4.5-5.2,9.1-10.3,13.5-15.5c1.4-1.6,2.5-3.4,3.6-5.2c1.2-1.9,2.9-2.7,4.9-3c3-0.3,6-0.4,8.9-0.4
				c2.1,0,5.2,3,5.9,5.3c1.3,5,0.7,9.8-2.3,14.1c-0.3,0.5-0.7,1-1.2,1.3c-5.3,3.3-8.6,8.5-12.7,12.9c-1.8,1.9-3.4,3.9-5.1,5.8
				c-3.6,4.2-7.2,8.5-10.7,12.8c-3.6,4.4-7.1,8.8-10.6,13.3c-1.2,1.5-2.3,3.1-3.6,4.6c-1.5,1.7-3.2,3.2-4.6,4.9
				c-1.1,1.2-2.7,2.5-3,4c-1.1,4.9-4.4,8.6-6.8,12.8c-2.6,4.5-5.5,9-8.2,13.4c-0.5,0.8-1,1.5-1.6,2.1c-4.4,4.5-6.1,10.4-8.4,15.9
				c-3.1,7.4-6,15-8.5,22.6c-2.2,6.8-3.7,13.8-5.4,20.7c-0.9,3.9-2.5,7-7.1,7.3c-2.5,0.1-5,0.9-7.5,0.6c-4-0.5-5.5-3.9-7.1-7.1
				c-1.4-2.9-0.2-5.5,0.1-8.3c0.3-2.8,0.8-5.6,1.1-8.4c0.6-5.4,1.1-10.8,1.5-16.2c0.2-2.7,0.3-5.3,0.4-8c0.2-3.9,0.2-7.8,0.4-11.7
				c0.4-9.2,0.8-18.4,1.2-27.7c0.2-7.1,0.3-14.2,0.4-21.3c0-3.6-0.1-7.2-0.4-10.7c-0.7-8.1-1.5-16.2-2.3-24.3
				c-0.4-3.8-0.7-7.7-1.2-11.5c-0.5-4-1.1-7.9-1.7-11.8c-0.8-5.4-1.7-10.8-2.6-16.1c-0.9-5-1.9-9.9-2.9-14.9
				c-1.4-7-2.8-13.9-4.2-20.9c-2-9.4-3.8-18.8-6-28.2c-2.4-10.4-5-20.7-7.8-31.1c-1.9-7-4.2-13.8-6.1-20.8
				c-3.1-11.2-6.1-22.4-9.2-33.7c-1-3.7-2.1-7.4-3.1-11.1c-2.3-8-4.6-16-7.1-23.9c-2.5-7.7-5.2-15.2-7.8-22.8
				c-3.7-10.7-7.6-21.3-11.3-32c-2.7-7.8-5.2-15.6-7.9-23.4c-1.6-4.5-3.5-8.9-5-13.5c-3.4-10.5-8.5-20.3-13-30.4
				c-4.3-9.7-8.3-19.6-12.3-29.4c-2.2-5.4-4.1-11-6.4-16.5c-1.2-2.9-3-5.6-4.5-8.5c-1.8-3.5-0.9-9.9,1.7-12.7
				c2.6-2.8,9.2-3.7,13.1-1.8c4.7,2.3,7.8,6.2,9.9,11c2.7,5.9,5.4,11.8,8,17.7c2.8,6.3,5.4,12.7,8,19.1c2,5,4.1,10.1,5.8,15.2
				c4.3,13.5,9.6,26.7,15.4,39.7c2,4.4,3.8,8.8,5.9,13.2c2.6,5.5,5.2,10.9,7.9,16.3c4.6,9.1,9.4,18.1,14.2,27.1
				c4.8,9,9.8,17.8,14.6,26.9c6.8,12.9,13.8,25.7,19.9,38.9c5.7,12.2,12.7,23.7,19.5,35.3c3.7,6.3,6.8,13,10.3,19.4
				c3.4,6.1,7,12,11.6,17.2c2.7,3.1,2.9,6.8,2.4,10.6c-0.3,2.2-0.8,4.3-2.6,6c-2.5,2.4-5.6,2.1-8.6,1.8c-1.7-0.1-3.3-1-4.9-1.4
				c-2.2-0.6-3.7-2-4.9-3.8c-1.6-2.6-3.4-5.1-4.9-7.7c-1.7-2.8-3.2-5.8-4.8-8.7c-1.4-2.5-2.7-5.1-4.1-7.6
				c-5.3-9.6-10.4-19.3-16.1-28.7c-3.8-6.2-6.8-12.7-10.2-19.1c-1-1.8-2-3.6-3.1-5.3c-0.3-0.5-0.7-0.8-1.1-1.2
				C388.9,408.4,388.6,408.5,388.3,408.6z"/>
		</g>
	</g>
</g>
</svg>
